<svg width="18" height="16" viewBox="0 0 18 16" fill="none" xmlns="http://www.w3.org/2000/svg">
<path fill-rule="evenodd" clip-rule="evenodd" d="M6.4 0C6.74434 0 7.05006 0.220344 7.15895 0.547018L11.2 12.6702L12.8411 7.74702C12.9499 7.42034 13.2557 7.2 13.6 7.2H16.8C17.2418 7.2 17.6 7.55817 17.6 8C17.6 8.44183 17.2418 8.8 16.8 8.8H14.1766L11.9589 15.453C11.8501 15.7797 11.5443 16 11.2 16C10.8557 16 10.5499 15.7797 10.4411 15.453L6.4 3.32982L4.75895 8.25298C4.65006 8.57966 4.34434 8.8 4 8.8H0.8C0.358172 8.8 0 8.44183 0 8C0 7.55817 0.358172 7.2 0.8 7.2H3.42339L5.64105 0.547018C5.74994 0.220344 6.05566 0 6.4 0Z" fill="#5BAEB6"/>
</svg>
