<svg width="16" height="16" viewBox="0 0 16 16" fill="none" xmlns="http://www.w3.org/2000/svg">
<path fill-rule="evenodd" clip-rule="evenodd" d="M8.00045 2C4.68649 2 2 4.68649 2 8.00045C2 11.3144 4.68649 14.0009 8.00045 14.0009C11.3144 14.0009 14.0009 11.3144 14.0009 8.00045C14.0009 4.68649 11.3144 2 8.00045 2ZM0 8.00045C0 3.58192 3.58192 0 8.00045 0C12.419 0 16.0009 3.58192 16.0009 8.00045C16.0009 12.419 12.419 16.0009 8.00045 16.0009C3.58192 16.0009 0 12.419 0 8.00045ZM8.00031 4.20014C8.55259 4.20014 9.00031 4.64786 9.00031 5.20014V8.00032C9.00031 8.55261 8.55259 9.00032 8.00031 9.00032C7.44802 9.00032 7.00031 8.55261 7.00031 8.00032V5.20014C7.00031 4.64786 7.44802 4.20014 8.00031 4.20014ZM8.00031 9.80062C7.44802 9.80062 7.00031 10.2483 7.00031 10.8006C7.00031 11.3529 7.44802 11.8006 8.00031 11.8006H8.00698C8.55926 11.8006 9.00698 11.3529 9.00698 10.8006C9.00698 10.2483 8.55926 9.80062 8.00698 9.80062H8.00031Z" fill="#5BAEB6"/>
</svg>
