<svg width="120" height="40" viewBox="0 0 120 40" fill="none" xmlns="http://www.w3.org/2000/svg">
<g clip-path="url(#clip0)">
<path d="M110.135 -7.3291e-06H9.53468C9.16798 -7.3291e-06 8.80568 -7.32904e-06 8.43995 0.00199267C8.1338 0.00399267 7.83009 0.00980267 7.521 0.0146927C6.84951 0.0225945 6.17961 0.0816689 5.5171 0.191403C4.85552 0.303525 4.21467 0.514908 3.61622 0.818403C3.0185 1.12446 2.47235 1.52216 1.99757 1.99706C1.5203 2.47063 1.12246 3.01801 0.81935 3.61815C0.5154 4.2171 0.304641 4.85893 0.19435 5.52147C0.0830109 6.18318 0.0230984 6.85251 0.01515 7.52347C0.00587 7.83007 0.00489 8.13769 0 8.44433V31.5586C0.00489 31.8691 0.00587 32.1699 0.01515 32.4805C0.0231008 33.1514 0.0830134 33.8207 0.19435 34.4824C0.304336 35.1453 0.515108 35.7875 0.81935 36.3867C1.12233 36.9849 1.52022 37.5301 1.99757 38.001C2.47054 38.478 3.01705 38.876 3.61622 39.1797C4.21467 39.484 4.85545 39.6966 5.5171 39.8105C6.17972 39.9193 6.84956 39.9784 7.521 39.9873C7.83009 39.9941 8.1338 39.998 8.43995 39.998C8.80567 40 9.168 40 9.53468 40H110.135C110.494 40 110.859 40 111.219 39.998C111.523 39.998 111.836 39.9941 112.141 39.9873C112.811 39.9789 113.479 39.9198 114.141 39.8105C114.804 39.6958 115.448 39.4833 116.049 39.1797C116.647 38.8758 117.193 38.4778 117.666 38.001C118.142 37.5282 118.541 36.9834 118.848 36.3867C119.15 35.7871 119.358 35.1449 119.467 34.4824C119.578 33.8206 119.64 33.1515 119.652 32.4805C119.656 32.1699 119.656 31.8691 119.656 31.5586C119.664 31.1953 119.664 30.834 119.664 30.4648V9.53612C119.664 9.16991 119.664 8.80663 119.656 8.44433C119.656 8.13769 119.656 7.83007 119.652 7.52343C119.64 6.85242 119.578 6.18323 119.467 5.52143C119.358 4.85927 119.149 4.2175 118.848 3.61811C118.23 2.41519 117.252 1.43602 116.049 0.818313C115.448 0.51556 114.804 0.304233 114.141 0.191313C113.48 0.0810955 112.811 0.0220004 112.141 0.0145527C111.836 0.00967267 111.523 0.00381267 111.219 0.00186267C110.859 -0.000137329 110.494 -0.000137329 110.135 -0.000137329V-7.3291e-06Z" fill="#A6A6A6"/>
<path d="M8.44487 39.125C8.14019 39.125 7.84287 39.1211 7.54058 39.1143C6.91436 39.1061 6.2896 39.0516 5.67144 38.9512C5.09503 38.8519 4.53664 38.6673 4.0147 38.4033C3.49754 38.1415 3.02585 37.7983 2.6177 37.3867C2.20364 36.98 1.85891 36.5082 1.59719 35.9902C1.33258 35.4688 1.14945 34.9099 1.05419 34.333C0.951311 33.7131 0.895651 33.0863 0.887687 32.458C0.881347 32.2471 0.873047 31.5449 0.873047 31.5449V8.44434C0.873047 8.44434 0.881887 7.75293 0.887737 7.5498C0.895363 6.92248 0.950699 6.29665 1.05327 5.67773C1.14871 5.09925 1.33197 4.53875 1.59673 4.01563C1.85749 3.49794 2.2003 3.02586 2.61187 2.61768C3.02297 2.20562 3.49617 1.8606 4.01421 1.59521C4.53495 1.33209 5.09228 1.14873 5.66753 1.05127C6.28772 0.949836 6.91465 0.894996 7.54304 0.88721L8.44536 0.875H111.214L112.127 0.8877C112.75 0.895099 113.371 0.94945 113.985 1.05029C114.566 1.14898 115.13 1.33362 115.656 1.59814C116.694 2.13299 117.539 2.97916 118.071 4.01807C118.332 4.53758 118.512 5.09351 118.606 5.66699C118.71 6.29099 118.768 6.92174 118.78 7.5542C118.783 7.8374 118.783 8.1416 118.783 8.44434C118.791 8.81934 118.791 9.17627 118.791 9.53613V30.4648C118.791 30.8281 118.791 31.1826 118.783 31.54C118.783 31.8652 118.783 32.1631 118.779 32.4697C118.768 33.0909 118.711 33.7104 118.608 34.3232C118.515 34.9043 118.333 35.4675 118.068 35.9932C117.805 36.5056 117.462 36.9733 117.053 37.3789C116.644 37.7927 116.172 38.1379 115.653 38.4014C115.128 38.6674 114.566 38.8527 113.985 38.9512C113.367 39.0522 112.742 39.1067 112.116 39.1143C111.823 39.1211 111.517 39.125 111.219 39.125L110.135 39.127L8.44487 39.125Z" fill="black"/>
<path d="M24.769 20.3008C24.7797 19.4661 25.0014 18.6478 25.4135 17.9218C25.8255 17.1959 26.4145 16.5859 27.1256 16.1487C26.6738 15.5036 26.0779 14.9726 25.385 14.5981C24.6922 14.2235 23.9216 14.0157 23.1344 13.9911C21.4552 13.8148 19.8272 14.9959 18.9715 14.9959C18.0992 14.9959 16.7817 14.0086 15.363 14.0378C14.4453 14.0674 13.551 14.3343 12.7671 14.8123C11.9832 15.2904 11.3365 15.9633 10.8901 16.7656C8.95607 20.114 10.3987 25.0351 12.2513 27.7417C13.1782 29.067 14.2615 30.5475 15.6789 30.495C17.066 30.4375 17.584 29.6105 19.2583 29.6105C20.9171 29.6105 21.4031 30.495 22.8493 30.4616C24.3377 30.4375 25.2754 29.1304 26.1698 27.7925C26.8358 26.8481 27.3483 25.8044 27.6882 24.7C26.8235 24.3342 26.0856 23.7221 25.5665 22.9398C25.0474 22.1575 24.77 21.2397 24.769 20.3008Z" fill="white"/>
<path d="M22.0376 12.2109C22.8491 11.2367 23.2489 9.98448 23.1521 8.72025C21.9123 8.85047 20.767 9.44302 19.9445 10.3799C19.5424 10.8375 19.2344 11.37 19.0381 11.9467C18.8419 12.5235 18.7612 13.1333 18.8008 13.7412C19.4209 13.7476 20.0344 13.6132 20.5951 13.3481C21.1558 13.083 21.649 12.6942 22.0376 12.2109Z" fill="white"/>
<path d="M42.3027 27.1396H37.5693L36.4326 30.4961H34.4277L38.9111 18.0781H40.9941L45.4775 30.4961H43.4385L42.3027 27.1396ZM38.0596 25.5908H41.8116L39.962 20.1435H39.9102L38.0596 25.5908Z" fill="white"/>
<path d="M55.1602 25.9697C55.1602 28.7832 53.6543 30.5908 51.3819 30.5908C50.8062 30.6209 50.2337 30.4883 49.7299 30.2082C49.2261 29.9281 48.8114 29.5117 48.5332 29.0068H48.4902V33.4912H46.6318V21.4424H48.4307V22.9483H48.4649C48.7558 22.4458 49.1776 22.0316 49.6852 21.7498C50.1928 21.4679 50.7674 21.3289 51.3477 21.3477C53.6455 21.3477 55.1602 23.1641 55.1602 25.9697ZM53.25 25.9697C53.25 24.1367 52.3028 22.9317 50.8574 22.9317C49.4375 22.9317 48.4824 24.1621 48.4824 25.9697C48.4824 27.794 49.4375 29.0156 50.8574 29.0156C52.3028 29.0156 53.25 27.8194 53.25 25.9697Z" fill="white"/>
<path d="M65.125 25.9697C65.125 28.7832 63.6192 30.5908 61.3467 30.5908C60.7711 30.621 60.1986 30.4883 59.6948 30.2082C59.191 29.9281 58.7762 29.5117 58.4981 29.0068H58.4551V33.4912H56.5967V21.4424H58.3955V22.9483H58.4297C58.7206 22.4458 59.1424 22.0316 59.65 21.7498C60.1576 21.4679 60.7322 21.329 61.3125 21.3477C63.6104 21.3477 65.125 23.1641 65.125 25.9697ZM63.2149 25.9697C63.2149 24.1367 62.2676 22.9317 60.8223 22.9317C59.4024 22.9317 58.4473 24.1621 58.4473 25.9697C58.4473 27.794 59.4024 29.0156 60.8223 29.0156C62.2676 29.0156 63.2149 27.8194 63.2149 25.9697H63.2149Z" fill="white"/>
<path d="M71.711 27.0361C71.8487 28.2676 73.045 29.0761 74.6797 29.0761C76.2461 29.0761 77.3731 28.2675 77.3731 27.1572C77.3731 26.1933 76.6934 25.6162 75.084 25.2207L73.4746 24.833C71.1944 24.2822 70.1358 23.2158 70.1358 21.4853C70.1358 19.3427 72.003 17.871 74.6543 17.871C77.2783 17.871 79.0772 19.3427 79.1377 21.4853H77.2617C77.1494 20.246 76.125 19.498 74.6279 19.498C73.1309 19.498 72.1065 20.2548 72.1065 21.3564C72.1065 22.2343 72.7608 22.7509 74.3613 23.1464L75.7295 23.4823C78.2773 24.0849 79.3359 25.1083 79.3359 26.9247C79.3359 29.248 77.4853 30.703 74.542 30.703C71.7881 30.703 69.9287 29.2821 69.8086 27.036L71.711 27.0361Z" fill="white"/>
<path d="M83.3467 19.2997V21.4423H85.0684V22.914H83.3467V27.9052C83.3467 28.6806 83.6914 29.0419 84.4482 29.0419C84.6526 29.0384 84.8567 29.024 85.0596 28.9989V30.4618C84.7193 30.5254 84.3734 30.5542 84.0273 30.5478C82.1943 30.5478 81.4795 29.8593 81.4795 28.1034V22.914H80.1631V21.4423H81.4795V19.2997H83.3467Z" fill="white"/>
<path d="M86.0654 25.9697C86.0654 23.121 87.7432 21.331 90.3594 21.331C92.9844 21.331 94.6543 23.121 94.6543 25.9697C94.6543 28.8261 92.9932 30.6083 90.3594 30.6083C87.7265 30.6083 86.0654 28.8261 86.0654 25.9697ZM92.7607 25.9697C92.7607 24.0156 91.8652 22.8623 90.3594 22.8623C88.8535 22.8623 87.959 24.0244 87.959 25.9697C87.959 27.9316 88.8535 29.0761 90.3594 29.0761C91.8652 29.0761 92.7607 27.9316 92.7607 25.9697H92.7607Z" fill="white"/>
<path d="M96.1865 21.4424H97.959V22.9834H98.002C98.1219 22.5021 98.4039 22.0768 98.8005 21.7789C99.197 21.481 99.6841 21.3287 100.18 21.3477C100.394 21.3469 100.607 21.3702 100.816 21.417V23.1553C100.546 23.0727 100.264 23.0347 99.9815 23.043C99.7115 23.032 99.4423 23.0796 99.1925 23.1825C98.9426 23.2854 98.718 23.4411 98.534 23.639C98.3501 23.8369 98.2111 24.0723 98.1267 24.3289C98.0422 24.5856 98.0144 24.8575 98.0449 25.126V30.4961H96.1865L96.1865 21.4424Z" fill="white"/>
<path d="M109.385 27.8369C109.135 29.4804 107.534 30.6083 105.486 30.6083C102.853 30.6083 101.218 28.8437 101.218 26.0126C101.218 23.1728 102.861 21.331 105.408 21.331C107.913 21.331 109.488 23.0517 109.488 25.7968V26.4335H103.094V26.5458C103.064 26.879 103.106 27.2147 103.216 27.5305C103.326 27.8464 103.502 28.1352 103.733 28.3777C103.963 28.6203 104.242 28.811 104.552 28.9373C104.862 29.0636 105.195 29.1226 105.529 29.1103C105.968 29.1514 106.409 29.0497 106.786 28.8203C107.163 28.5908 107.455 28.2459 107.62 27.8368L109.385 27.8369ZM103.103 25.1347H107.629C107.646 24.8351 107.6 24.5353 107.495 24.2541C107.391 23.9729 107.229 23.7163 107.021 23.5006C106.812 23.2848 106.561 23.1145 106.284 23.0003C106.006 22.886 105.708 22.8304 105.408 22.8369C105.106 22.835 104.806 22.8932 104.526 23.0079C104.245 23.1227 103.991 23.2917 103.777 23.5054C103.562 23.719 103.392 23.973 103.277 24.2526C103.161 24.5323 103.102 24.8321 103.103 25.1347V25.1347Z" fill="white"/>
<path d="M37.8262 8.73079C38.2158 8.70283 38.6067 8.76169 38.9708 8.90312C39.335 9.04455 39.6631 9.26503 39.9317 9.54866C40.2003 9.83228 40.4026 10.172 40.524 10.5433C40.6454 10.9145 40.6829 11.3081 40.6338 11.6956C40.6338 13.6019 39.6035 14.6976 37.8262 14.6976H35.6709V8.73079H37.8262ZM36.5976 13.8538H37.7226C38.0011 13.8704 38.2797 13.8248 38.5382 13.7202C38.7967 13.6155 39.0287 13.4546 39.2172 13.249C39.4057 13.0435 39.546 12.7985 39.6278 12.5318C39.7097 12.2652 39.7311 11.9837 39.6904 11.7078C39.7281 11.433 39.7046 11.1532 39.6215 10.8885C39.5383 10.6239 39.3977 10.3808 39.2096 10.1769C39.0216 9.97299 38.7907 9.81318 38.5337 9.70894C38.2766 9.60471 37.9996 9.55862 37.7226 9.57399H36.5976V13.8538Z" fill="white"/>
<path d="M41.6809 12.4442C41.6526 12.1482 41.6865 11.8497 41.7803 11.5676C41.8742 11.2855 42.0259 11.0262 42.2259 10.8062C42.4258 10.5862 42.6695 10.4105 42.9414 10.2902C43.2132 10.1699 43.5072 10.1078 43.8045 10.1078C44.1017 10.1078 44.3957 10.1699 44.6676 10.2902C44.9394 10.4105 45.1831 10.5862 45.3831 10.8062C45.583 11.0262 45.7348 11.2855 45.8286 11.5676C45.9225 11.8497 45.9563 12.1482 45.928 12.4442C45.9569 12.7404 45.9234 13.0394 45.8298 13.3219C45.7362 13.6044 45.5846 13.8642 45.3846 14.0847C45.1846 14.3051 44.9407 14.4812 44.6686 14.6017C44.3964 14.7223 44.1021 14.7845 43.8045 14.7845C43.5069 14.7845 43.2125 14.7223 42.9404 14.6017C42.6683 14.4812 42.4244 14.3051 42.2244 14.0847C42.0244 13.8642 41.8727 13.6044 41.7791 13.3219C41.6855 13.0394 41.6521 12.7404 41.6809 12.4442ZM45.0139 12.4442C45.0139 11.4681 44.5755 10.8973 43.8059 10.8973C43.0335 10.8973 42.5989 11.4681 42.5989 12.4442C42.5989 13.4281 43.0335 13.9945 43.8059 13.9945C44.5755 13.9945 45.014 13.4241 45.014 12.4442H45.0139Z" fill="white"/>
<path d="M51.5732 14.6976H50.6514L49.7207 11.3812H49.6504L48.7236 14.6976H47.8105L46.5693 10.1947H47.4707L48.2773 13.6307H48.3438L49.2695 10.1947H50.1221L51.0479 13.6307H51.1182L51.9209 10.1947H52.8096L51.5732 14.6976Z" fill="white"/>
<path d="M53.8535 10.1947H54.709V10.91H54.7754C54.8881 10.6531 55.0781 10.4378 55.3189 10.2939C55.5598 10.1501 55.8395 10.0851 56.1191 10.1078C56.3382 10.0913 56.5582 10.1244 56.7628 10.2045C56.9674 10.2846 57.1514 10.4097 57.3011 10.5705C57.4508 10.7313 57.5623 10.9238 57.6275 11.1336C57.6927 11.3434 57.7099 11.5652 57.6777 11.7826V14.6976H56.7891V12.0058C56.7891 11.2821 56.4746 10.9223 55.8174 10.9223C55.6686 10.9153 55.5201 10.9406 55.3821 10.9965C55.244 11.0523 55.1197 11.1373 55.0175 11.2457C54.9154 11.3541 54.8379 11.4833 54.7904 11.6244C54.7429 11.7655 54.7264 11.9153 54.7422 12.0634V14.6976H53.8535L53.8535 10.1947Z" fill="white"/>
<path d="M59.0938 8.43687H59.9824V14.6976H59.0938V8.43687Z" fill="white"/>
<path d="M61.218 12.4442C61.1897 12.1482 61.2236 11.8497 61.3175 11.5676C61.4113 11.2855 61.5631 11.0261 61.7631 10.8062C61.963 10.5862 62.2068 10.4104 62.4786 10.2901C62.7505 10.1698 63.0445 10.1077 63.3418 10.1077C63.6391 10.1077 63.9331 10.1698 64.205 10.2901C64.4768 10.4104 64.7206 10.5862 64.9205 10.8062C65.1205 11.0261 65.2723 11.2855 65.3661 11.5676C65.46 11.8497 65.4939 12.1482 65.4656 12.4442C65.4944 12.7404 65.4609 13.0394 65.3673 13.3219C65.2737 13.6044 65.122 13.8643 64.922 14.0847C64.722 14.3051 64.478 14.4812 64.2059 14.6017C63.9338 14.7223 63.6394 14.7845 63.3418 14.7845C63.0442 14.7845 62.7498 14.7223 62.4777 14.6017C62.2056 14.4812 61.9617 14.3051 61.7616 14.0847C61.5616 13.8643 61.4099 13.6044 61.3163 13.3219C61.2227 13.0394 61.1892 12.7404 61.218 12.4442ZM64.551 12.4442C64.551 11.4681 64.1125 10.8973 63.343 10.8973C62.5706 10.8973 62.136 11.4681 62.136 12.4442C62.136 13.4281 62.5706 13.9945 63.343 13.9945C64.1126 13.9945 64.551 13.4242 64.551 12.4442H64.551Z" fill="white"/>
<path d="M66.4004 13.4241C66.4004 12.6136 67.0039 12.1463 68.0752 12.0799L69.2949 12.0096V11.6209C69.2949 11.1453 68.9805 10.8768 68.373 10.8768C67.877 10.8768 67.5332 11.0589 67.4346 11.3773H66.5742C66.665 10.6038 67.3926 10.1077 68.4141 10.1077C69.543 10.1077 70.1797 10.6697 70.1797 11.6209V14.6976H69.3242V14.0648H69.2539C69.1112 14.2918 68.9108 14.4768 68.6732 14.601C68.4355 14.7252 68.1692 14.7842 67.9014 14.7718C67.7123 14.7914 67.5213 14.7713 67.3405 14.7126C67.1598 14.6539 66.9933 14.5579 66.8519 14.431C66.7105 14.304 66.5972 14.1488 66.5195 13.9754C66.4417 13.802 66.4011 13.6142 66.4004 13.4241ZM69.2949 13.0394V12.6629L68.1953 12.7332C67.5752 12.7747 67.2939 12.9857 67.2939 13.3826C67.2939 13.7879 67.6455 14.0237 68.1289 14.0237C68.2706 14.0381 68.4137 14.0238 68.5497 13.9817C68.6857 13.9396 68.8118 13.8706 68.9206 13.7787C69.0294 13.6869 69.1186 13.5741 69.1829 13.4471C69.2472 13.3201 69.2853 13.1814 69.2949 13.0394Z" fill="white"/>
<path d="M71.3477 12.4442C71.3477 11.0214 72.0791 10.12 73.2168 10.12C73.4982 10.107 73.7775 10.1744 74.022 10.3143C74.2666 10.4542 74.4662 10.6608 74.5977 10.91H74.6641V8.43687H75.5527V14.6976H74.7012V13.9862H74.6309C74.4893 14.2337 74.2826 14.4377 74.0334 14.5762C73.7841 14.7147 73.5017 14.7823 73.2168 14.7718C72.0713 14.7719 71.3477 13.8705 71.3477 12.4442ZM72.2657 12.4442C72.2657 13.3993 72.7159 13.974 73.4688 13.974C74.2178 13.974 74.6807 13.391 74.6807 12.4481C74.6807 11.5096 74.2129 10.9183 73.4688 10.9183C72.7207 10.9183 72.2656 11.4969 72.2656 12.4442H72.2657Z" fill="white"/>
<path d="M79.2298 12.4442C79.2015 12.1482 79.2353 11.8497 79.3292 11.5676C79.423 11.2855 79.5748 11.0262 79.7747 10.8062C79.9746 10.5862 80.2183 10.4105 80.4902 10.2902C80.762 10.1699 81.056 10.1078 81.3533 10.1078C81.6506 10.1078 81.9446 10.1699 82.2164 10.2902C82.4883 10.4105 82.732 10.5862 82.9319 10.8062C83.1319 11.0262 83.2836 11.2855 83.3775 11.5676C83.4713 11.8497 83.5052 12.1482 83.4768 12.4442C83.5057 12.7404 83.4722 13.0394 83.3786 13.3219C83.2851 13.6044 83.1334 13.8642 82.9334 14.0847C82.7334 14.3051 82.4895 14.4812 82.2174 14.6017C81.9453 14.7223 81.6509 14.7845 81.3533 14.7845C81.0557 14.7845 80.7614 14.7223 80.4892 14.6017C80.2171 14.4812 79.9732 14.3051 79.7732 14.0847C79.5732 13.8642 79.4216 13.6044 79.328 13.3219C79.2344 13.0394 79.2009 12.7404 79.2298 12.4442ZM82.5628 12.4442C82.5628 11.4681 82.1243 10.8973 81.3548 10.8973C80.5823 10.8973 80.1478 11.4681 80.1478 12.4442C80.1478 13.4281 80.5823 13.9945 81.3548 13.9945C82.1243 13.9945 82.5628 13.4241 82.5628 12.4442Z" fill="white"/>
<path d="M84.6689 10.1947H85.5244V10.91H85.5908C85.7035 10.6531 85.8935 10.4378 86.1344 10.2939C86.3752 10.1501 86.655 10.0851 86.9346 10.1078C87.1537 10.0913 87.3737 10.1244 87.5783 10.2045C87.7829 10.2846 87.9668 10.4097 88.1165 10.5705C88.2662 10.7313 88.3778 10.9238 88.443 11.1336C88.5082 11.3434 88.5253 11.5652 88.4932 11.7826V14.6976H87.6045V12.0058C87.6045 11.2821 87.2901 10.9223 86.6328 10.9223C86.4841 10.9153 86.3356 10.9406 86.1975 10.9965C86.0594 11.0523 85.9351 11.1373 85.833 11.2457C85.7308 11.3541 85.6534 11.4833 85.6058 11.6244C85.5583 11.7655 85.5419 11.9153 85.5576 12.0634V14.6976H84.6689V10.1947Z" fill="white"/>
<path d="M93.5146 9.07361V10.2152H94.4902V10.9637H93.5146V13.2792C93.5146 13.7509 93.709 13.9574 94.1514 13.9574C94.2646 13.957 94.3778 13.9502 94.4902 13.9369V14.6771C94.3306 14.7057 94.1689 14.7209 94.0068 14.7225C93.0186 14.7225 92.625 14.3749 92.625 13.5067V10.9637H91.9102V10.2152H92.625V9.07361H93.5146Z" fill="white"/>
<path d="M95.7051 8.43687H96.5859V10.9183H96.6562C96.7744 10.659 96.9696 10.4424 97.2153 10.2981C97.461 10.1537 97.7452 10.0886 98.0293 10.1117C98.2472 10.0998 98.4651 10.1362 98.6674 10.2183C98.8697 10.3003 99.0513 10.426 99.1995 10.5863C99.3476 10.7466 99.4585 10.9377 99.5243 11.1458C99.5901 11.354 99.6091 11.5741 99.58 11.7904V14.6976H98.6905V12.0096C98.6905 11.2904 98.3555 10.9261 97.7276 10.9261C97.5748 10.9136 97.4212 10.9346 97.2774 10.9876C97.1337 11.0407 97.0032 11.1245 96.8952 11.2333C96.7872 11.342 96.7043 11.473 96.6522 11.6172C96.6002 11.7613 96.5802 11.9151 96.5938 12.0677V14.6976H95.7051L95.7051 8.43687Z" fill="white"/>
<path d="M104.761 13.4818C104.641 13.8933 104.379 14.2493 104.022 14.4874C103.666 14.7256 103.237 14.8307 102.81 14.7845C102.514 14.7923 102.219 14.7355 101.946 14.618C101.674 14.5004 101.43 14.325 101.232 14.1039C101.034 13.8827 100.887 13.6212 100.8 13.3374C100.713 13.0535 100.69 12.7543 100.73 12.4603C100.691 12.1654 100.715 11.8655 100.801 11.5808C100.888 11.2961 101.035 11.0334 101.231 10.8103C101.428 10.5872 101.671 10.409 101.943 10.2878C102.214 10.1666 102.509 10.1052 102.806 10.1077C104.059 10.1077 104.815 10.9637 104.815 12.3777V12.6878H101.635V12.7376C101.621 12.9029 101.642 13.0692 101.696 13.226C101.751 13.3827 101.837 13.5264 101.95 13.6479C102.063 13.7693 102.2 13.8658 102.352 13.9312C102.504 13.9966 102.669 14.0295 102.835 14.0276C103.047 14.0531 103.263 14.0149 103.453 13.9177C103.644 13.8205 103.802 13.6687 103.906 13.4817L104.761 13.4818ZM101.635 12.0306H103.91C103.921 11.8795 103.9 11.7277 103.85 11.5849C103.799 11.4422 103.718 11.3117 103.614 11.2019C103.51 11.092 103.383 11.0052 103.243 10.9471C103.103 10.8889 102.953 10.8606 102.801 10.8641C102.648 10.8622 102.495 10.891 102.353 10.949C102.21 11.0069 102.081 11.0928 101.972 11.2015C101.864 11.3102 101.778 11.4396 101.72 11.582C101.662 11.7244 101.633 11.8769 101.635 12.0306H101.635Z" fill="white"/>
</g>
<defs>
<clipPath id="clip0">
<rect width="119.664" height="40" fill="white"/>
</clipPath>
</defs>
</svg>
