<?xml version="1.0" standalone="no"?>
<!DOCTYPE svg PUBLIC "-//W3C//DTD SVG 20010904//EN"
 "http://www.w3.org/TR/2001/REC-SVG-20010904/DTD/svg10.dtd">
<svg version="1.0" xmlns="http://www.w3.org/2000/svg"
 width="742.000000pt" height="1280.000000pt" viewBox="0 0 742.000000 1280.000000"
 preserveAspectRatio="xMidYMid meet">
<metadata>
Created by potrace 1.15, written by Peter Selinger 2001-2017
</metadata>
<g transform="translate(0.000000,1280.000000) scale(0.100000,-0.100000)"
fill="#000000" stroke="none">
<path d="M3335 12789 c-232 -16 -687 -144 -1005 -284 -652 -286 -1195 -750
-1560 -1334 -273 -437 -451 -946 -516 -1471 -21 -167 -24 -544 -6 -680 32
-237 88 -437 166 -586 l43 -83 -15 -103 c-22 -153 -21 -576 2 -738 70 -498
232 -927 505 -1338 44 -64 93 -136 110 -158 l31 -41 -49 -65 c-228 -301 -489
-831 -656 -1330 -218 -656 -341 -1327 -377 -2059 -16 -348 1 -505 82 -750 185
-557 684 -1027 1430 -1347 1105 -475 2627 -555 3804 -202 996 299 1640 869
1831 1623 34 136 53 314 66 642 38 940 -114 1793 -450 2525 -133 289 -347 616
-499 764 l-41 39 61 70 c213 247 408 577 534 898 129 331 192 643 210 1027 l6
154 68 131 c152 295 245 597 292 947 16 125 16 537 0 660 -101 744 -419 1390
-951 1934 -319 325 -626 550 -1021 747 -640 319 -1358 460 -2095 408z"/>
</g>
</svg>
