<svg width="154" height="154" viewBox="0 0 154 154" fill="none" xmlns="http://www.w3.org/2000/svg">
<path d="M77 0C119.526 0 154 34.4741 154 77C154 119.526 119.526 154 77 154C34.4741 154 0 119.526 0 77C0 34.4741 34.4741 0 77 0ZM77 15.4C42.9793 15.4 15.4 42.9793 15.4 77C15.4 111.021 42.9793 138.6 77 138.6C111.021 138.6 138.6 111.021 138.6 77C138.6 42.9793 111.021 15.4 77 15.4ZM111.719 51.24L112.391 51.8382C115.183 54.6305 115.382 59.0337 112.989 62.0561L112.391 62.7277L74.2775 100.841C71.4852 103.633 67.0822 103.832 64.0598 101.439L63.3882 100.841L41.6093 79.0618C38.6023 76.0547 38.6023 71.1793 41.6093 68.1723C44.4016 65.3801 48.8046 65.1807 51.827 67.574L52.4985 68.1723L68.8328 84.5066L101.501 51.8382C104.294 49.046 108.697 48.8466 111.719 51.24Z" fill="#DE7D2C"/>
</svg>
