<svg width="42" height="42" viewBox="0 0 42 42" fill="none" xmlns="http://www.w3.org/2000/svg">
<path fill-rule="evenodd" clip-rule="evenodd" d="M21 42C32.598 42 42 32.598 42 21C42 9.40202 32.598 0 21 0C9.40202 0 0 9.40202 0 21C0 32.598 9.40202 42 21 42Z" fill="#5BAEB6"/>
<path d="M20.9996 18.7169L26.8906 12.8259C27.5211 12.1954 28.5433 12.1954 29.1738 12.8259C29.8043 13.4564 29.8043 14.4786 29.1738 15.1091L23.2828 21.0001L29.1738 26.8911C29.8043 27.5216 29.8043 28.5438 29.1738 29.1743C28.5433 29.8048 27.5211 29.8048 26.8906 29.1743L20.9996 23.2833L15.1086 29.1743C14.4781 29.8048 13.4559 29.8048 12.8254 29.1743C12.1949 28.5438 12.1949 27.5216 12.8254 26.8911L18.7164 21.0001L12.8254 15.1091C12.1949 14.4786 12.1949 13.4564 12.8254 12.8259C13.4559 12.1954 14.4781 12.1954 15.1086 12.8259L20.9996 18.7169Z" fill="white"/>
</svg>
