<svg width="25" height="25" viewBox="0 0 25 25" fill="none" xmlns="http://www.w3.org/2000/svg">
<path d="M24.5569 2.56066C25.1426 1.97487 25.1426 1.02513 24.5569 0.43934C23.9711 -0.146447 23.0213 -0.146447 22.4355 0.43934L12.4981 10.3768L2.56066 0.43934C1.97487 -0.146447 1.02513 -0.146447 0.43934 0.43934C-0.146447 1.02513 -0.146447 1.97487 0.43934 2.56066L10.3768 12.4981L0.43934 22.4355C-0.146447 23.0213 -0.146447 23.9711 0.43934 24.5569C1.02513 25.1426 1.97487 25.1426 2.56066 24.5569L12.4981 14.6194L22.4355 24.5569C23.0213 25.1426 23.9711 25.1426 24.5569 24.5569C25.1426 23.9711 25.1426 23.0213 24.5569 22.4355L14.6194 12.4981L24.5569 2.56066Z" fill="#DE7D2C"/>
</svg>
