<svg width="28" height="28" viewBox="0 0 28 28" fill="none" xmlns="http://www.w3.org/2000/svg">
<path fill-rule="evenodd" clip-rule="evenodd" d="M14 28C21.732 28 28 21.732 28 14C28 6.26801 21.732 0 14 0C6.26801 0 0 6.26801 0 14C0 21.732 6.26801 28 14 28Z" fill="#DE7D2C"/>
<path d="M13.7647 12.2426L17.692 8.31525C18.1124 7.89492 18.7938 7.89492 19.2142 8.31525C19.6345 8.73557 19.6345 9.41706 19.2142 9.83739L15.2868 13.7647L19.2142 17.692C19.6345 18.1124 19.6345 18.7938 19.2142 19.2142C18.7938 19.6345 18.1124 19.6345 17.692 19.2142L13.7647 15.2868L9.83739 19.2142C9.41706 19.6345 8.73557 19.6345 8.31525 19.2142C7.89492 18.7938 7.89492 18.1124 8.31525 17.692L12.2426 13.7647L8.31525 9.83739C7.89492 9.41706 7.89492 8.73557 8.31525 8.31525C8.73557 7.89492 9.41706 7.89492 9.83739 8.31525L13.7647 12.2426Z" fill="white"/>
</svg>
