<svg width="25" height="21" viewBox="0 0 25 21" fill="none" xmlns="http://www.w3.org/2000/svg">
<path fill-rule="evenodd" clip-rule="evenodd" d="M14.9322 0.710938H17.3764L24.2206 4.62205L22.2655 9.99978L19.3322 9.02191V20.2665H5.64304V9.02191L2.70971 9.99978L0.753906 4.62205L7.59847 0.710938H10.043C10.043 2.05904 11.1395 3.15543 12.4872 3.15543C13.835 3.15543 14.9322 2.05904 14.9322 0.710938ZM19.6394 8.09452L21.6697 8.77127L23.0189 5.06214L17.115 1.68882H15.7658C15.3454 3.10246 14.0363 4.13331 12.4859 4.13331C10.9358 4.13331 9.62631 3.10246 9.20556 1.68882H7.85669L1.95312 5.06214L3.302 8.77132L5.33228 8.09456L6.61919 7.66526V9.02197V19.2883H18.3525V9.02197V7.66526L19.6394 8.09452Z" fill="white"/>
</svg>
