<svg width="33" height="29" viewBox="0 0 33 29" fill="none" xmlns="http://www.w3.org/2000/svg">
<path d="M30.4554 2.56381C29.6491 1.75101 28.6917 1.10624 27.638 0.666328C26.5842 0.226421 25.4548 0 24.3142 0C23.1736 0 22.0442 0.226421 20.9905 0.666328C19.9367 1.10624 18.9794 1.75101 18.173 2.56381L16.4996 4.24987L14.8261 2.56381C13.1974 0.922775 10.9883 0.000850606 8.68495 0.000850623C6.38156 0.000850641 4.17251 0.922775 2.54376 2.56381C0.915019 4.20485 1.71616e-08 6.43057 0 8.75134C-1.71616e-08 11.0721 0.915019 13.2978 2.54376 14.9389L4.2172 16.6249L15.7898 28.2849C16.1809 28.679 16.8182 28.679 17.2093 28.2849L28.782 16.6249L30.4554 14.9389C31.2621 14.1265 31.9021 13.1619 32.3387 12.1002C32.7753 11.0385 33 9.90055 33 8.75134C33 7.60214 32.7753 6.46419 32.3387 5.40251C31.9021 4.34083 31.2621 3.37623 30.4554 2.56381Z" fill="#FF5353"/>
</svg>
