<svg width="18" height="21" viewBox="0 0 18 21" fill="none" xmlns="http://www.w3.org/2000/svg">
<path fill-rule="evenodd" clip-rule="evenodd" d="M8.99456 9.63752e-08C9.25993 -0.000115452 9.51447 0.103675 9.70211 0.288515L15.3619 5.86367C15.362 5.86375 15.3618 5.8636 15.3619 5.86367C16.621 7.10326 17.4789 8.68306 17.8266 10.4028C18.1744 12.1227 17.9965 13.9056 17.3155 15.5259C16.6345 17.1462 15.4809 18.5311 14.0007 19.5055C12.5206 20.4799 10.7803 21 9 21C7.21972 21 5.47943 20.4799 3.99926 19.5055C2.51909 18.5311 1.36554 17.1462 0.684524 15.5259C0.00350869 13.9056 -0.174377 12.1227 0.173368 10.4028C0.521058 8.68323 1.37859 7.1038 2.63753 5.86426C2.63773 5.86407 2.63733 5.86446 2.63753 5.86426L8.28727 0.289131C8.47475 0.104128 8.72919 0.000115645 8.99456 9.63752e-08ZM8.99563 2.37874L4.05188 7.2572C3.07245 8.22135 2.40531 9.44998 2.13484 10.7877C1.86437 12.1254 2.00273 13.512 2.53241 14.7722C3.06209 16.0325 3.95929 17.1096 5.11054 17.8675C6.26178 18.6254 7.61534 19.0299 9 19.0299C10.3847 19.0299 11.7382 18.6254 12.8895 17.8675C14.0407 17.1096 14.9379 16.0325 15.4676 14.7722C15.9973 13.512 16.1356 12.1254 15.8652 10.7877C15.5947 9.44998 14.9276 8.22135 13.9481 7.2572L8.99563 2.37874Z" fill="white"/>
</svg>
