<svg width="48" height="19" viewBox="0 0 48 19" fill="none" xmlns="http://www.w3.org/2000/svg">
<path d="M4.84252 1.032C5.34652 1.032 5.80852 1.086 6.22852 1.194C6.64852 1.29 6.97252 1.386 7.20052 1.482L6.67852 3.624C6.43852 3.516 6.17452 3.438 5.88652 3.39C5.61052 3.33 5.35252 3.3 5.11252 3.3C4.78852 3.3 4.51252 3.348 4.28452 3.444C4.06852 3.528 3.89452 3.648 3.76252 3.804C3.64252 3.96 3.55252 4.146 3.49252 4.362C3.44452 4.578 3.42052 4.812 3.42052 5.064V5.532H6.73252V7.764H3.42052V15H0.738516V5.028C0.738516 3.804 1.08052 2.832 1.76452 2.112C2.46052 1.392 3.48652 1.032 4.84252 1.032ZM8.24227 3.174L10.9243 2.742V5.532H14.1463V7.764H10.9243V11.094C10.9243 11.658 11.0203 12.108 11.2123 12.444C11.4163 12.78 11.8183 12.948 12.4183 12.948C12.7063 12.948 13.0003 12.924 13.3003 12.876C13.6123 12.816 13.8943 12.738 14.1463 12.642L14.5243 14.73C14.2003 14.862 13.8403 14.976 13.4443 15.072C13.0483 15.168 12.5623 15.216 11.9863 15.216C11.2543 15.216 10.6483 15.12 10.1683 14.928C9.68827 14.724 9.30427 14.448 9.01627 14.1C8.72827 13.74 8.52427 13.308 8.40427 12.804C8.29627 12.3 8.24227 11.742 8.24227 11.13V3.174ZM17.3743 18.33H14.6203L20.6683 0.905999H23.3863L17.3743 18.33ZM28.2666 15.18C27.4866 15.168 26.8506 15.084 26.3586 14.928C25.8786 14.772 25.4946 14.556 25.2066 14.28C24.9306 13.992 24.7386 13.65 24.6306 13.254C24.5346 12.846 24.4866 12.39 24.4866 11.886V1.464L27.1686 1.032V11.346C27.1686 11.586 27.1866 11.802 27.2226 11.994C27.2586 12.186 27.3246 12.348 27.4206 12.48C27.5286 12.612 27.6786 12.72 27.8706 12.804C28.0626 12.888 28.3206 12.942 28.6446 12.966L28.2666 15.18ZM36.2479 10.194C36.2479 8.466 35.6119 7.602 34.3399 7.602C34.0639 7.602 33.7879 7.638 33.5119 7.71C33.2479 7.782 33.0319 7.872 32.8639 7.98V12.858C32.9959 12.882 33.1639 12.906 33.3679 12.93C33.5719 12.942 33.7939 12.948 34.0339 12.948C34.7659 12.948 35.3179 12.696 35.6899 12.192C36.0619 11.688 36.2479 11.022 36.2479 10.194ZM38.9839 10.266C38.9839 11.022 38.8699 11.706 38.6419 12.318C38.4259 12.93 38.1079 13.452 37.6879 13.884C37.2679 14.316 36.7519 14.652 36.1399 14.892C35.5279 15.12 34.8319 15.234 34.0519 15.234C33.7279 15.234 33.3859 15.216 33.0259 15.18C32.6779 15.156 32.3299 15.12 31.9819 15.072C31.6459 15.024 31.3219 14.97 31.0099 14.91C30.6979 14.838 30.4219 14.766 30.1819 14.694V1.464L32.8639 1.032V5.748C33.1639 5.616 33.4759 5.514 33.7999 5.442C34.1239 5.37 34.4719 5.334 34.8439 5.334C35.5159 5.334 36.1099 5.454 36.6259 5.694C37.1419 5.922 37.5739 6.252 37.9219 6.684C38.2699 7.116 38.5339 7.638 38.7139 8.25C38.8939 8.85 38.9839 9.522 38.9839 10.266ZM43.7632 13.074C44.2552 13.074 44.6032 13.026 44.8072 12.93C45.0112 12.834 45.1132 12.648 45.1132 12.372C45.1132 12.156 44.9812 11.97 44.7172 11.814C44.4532 11.646 44.0512 11.46 43.5112 11.256C43.0912 11.1 42.7072 10.938 42.3592 10.77C42.0232 10.602 41.7352 10.404 41.4952 10.176C41.2552 9.936 41.0692 9.654 40.9372 9.33C40.8052 9.006 40.7392 8.616 40.7392 8.16C40.7392 7.272 41.0692 6.57 41.7292 6.054C42.3892 5.538 43.2952 5.28 44.4472 5.28C45.0232 5.28 45.5752 5.334 46.1032 5.442C46.6312 5.538 47.0512 5.646 47.3632 5.766L46.8952 7.854C46.5832 7.746 46.2412 7.65 45.8692 7.566C45.5092 7.482 45.1012 7.44 44.6452 7.44C43.8052 7.44 43.3852 7.674 43.3852 8.142C43.3852 8.25 43.4032 8.346 43.4392 8.43C43.4752 8.514 43.5472 8.598 43.6552 8.682C43.7632 8.754 43.9072 8.838 44.0872 8.934C44.2792 9.018 44.5192 9.114 44.8072 9.222C45.3952 9.438 45.8812 9.654 46.2652 9.87C46.6492 10.074 46.9492 10.302 47.1652 10.554C47.3932 10.794 47.5492 11.064 47.6332 11.364C47.7292 11.664 47.7772 12.012 47.7772 12.408C47.7772 13.344 47.4232 14.052 46.7152 14.532C46.0192 15.012 45.0292 15.252 43.7452 15.252C42.9052 15.252 42.2032 15.18 41.6392 15.036C41.0872 14.892 40.7032 14.772 40.4872 14.676L40.9372 12.498C41.3932 12.678 41.8612 12.822 42.3412 12.93C42.8212 13.026 43.2952 13.074 43.7632 13.074Z" fill="white"/>
</svg>
