<?xml version="1.0" encoding="utf-8"?>
<!-- Generator: Adobe Illustrator 26.1.0, SVG Export Plug-In . SVG Version: 6.00 Build 0)  -->
<svg version="1.1" id="Layer_1" xmlns="http://www.w3.org/2000/svg" xmlns:xlink="http://www.w3.org/1999/xlink" x="0px" y="0px"
	 viewBox="0 0 448 512" style="enable-background:new 0 0 448 512;" xml:space="preserve">
<style type="text/css">
	.st0{fill:#DE7D2C;}
</style>
<path class="st0" d="M96,192v-64C96,57.3,153.3,0,224,0s128,57.3,128,128v64h32c35.3,0,64,28.7,64,64v192c0,35.3-28.7,64-64,64H64
	c-35.3,0-64-28.7-64-64V256c0-35.3,28.6-64,64-64H96z M144,192h160v-64c0-44.2-35.8-80-80-80s-80,35.8-80,80V192z M48,448
	c0,8.8,7.2,16,16,16h320c8.8,0,16-7.2,16-16V256c0-8.8-7.2-16-16-16H64c-8.8,0-16,7.2-16,16V448z"/>
</svg>
