<svg width="160" height="25" viewBox="0 0 160 25" fill="none" xmlns="http://www.w3.org/2000/svg">
<path fill-rule="evenodd" clip-rule="evenodd" d="M48.2171 21.0938H35.2609C34.1428 21.0938 33.2363 21.9678 33.2363 23.0471C33.2363 24.1264 34.1428 25 35.2609 25H48.2171C49.3353 25 50.2412 24.1264 50.2412 23.0471C50.2412 21.9678 49.3353 21.0938 48.2171 21.0938Z" fill="white"/>
<path fill-rule="evenodd" clip-rule="evenodd" d="M48.222 0.78125H35.3008C34.765 0.78125 34.2516 0.993401 33.8733 1.36988L23.7786 11.4137C23.2014 11.9891 23.029 12.853 23.3409 13.6029C23.6533 14.3543 24.3891 14.8437 25.2057 14.8437H39.7425C40.8577 14.8437 41.7611 13.9438 41.7611 12.8347C41.7611 11.7251 40.8577 10.8261 39.7425 10.8261H30.0799L36.1373 4.79889H48.222C49.3371 4.79889 50.2406 3.89941 50.2406 2.78931C50.2406 1.68073 49.3371 0.78125 48.222 0.78125Z" fill="white"/>
<path fill-rule="evenodd" clip-rule="evenodd" d="M56.0381 10.9375C54.9712 10.9375 54.1055 11.8375 54.1055 12.9466V22.9909C54.1055 24.1015 54.9712 25 56.0381 25C57.1055 25 57.9703 24.1015 57.9703 22.9909V12.9466C57.9703 11.8375 57.1055 10.9375 56.0381 10.9375Z" fill="white"/>
<path fill-rule="evenodd" clip-rule="evenodd" d="M76.0364 0C74.9153 0 74.005 0.918495 74.005 2.05219V17.2113L57.5719 0.601414C56.7789 -0.200125 55.4932 -0.200125 54.7002 0.601414C53.9072 1.40295 53.9072 2.70247 54.7002 3.50348L74.6006 23.6179C74.9889 24.0108 75.5083 24.2187 76.0364 24.2187C76.2982 24.2187 76.5625 24.1683 76.814 24.0628C77.5726 23.7452 78.0668 22.9967 78.0668 22.1671V2.05219C78.0668 0.918495 77.1581 0 76.0364 0Z" fill="white"/>
<path fill-rule="evenodd" clip-rule="evenodd" d="M105.294 1.38012C104.498 0.579638 103.209 0.582237 102.415 1.38428L82.5263 21.4992C81.9446 22.086 81.7718 22.9686 82.0874 23.7348C82.403 24.501 83.1451 25 83.9681 25H103.808C104.932 25 105.845 24.082 105.845 22.9479C105.845 21.8137 104.932 20.8952 103.808 20.8952H88.8723L105.298 4.28212C106.093 3.48008 106.091 2.18112 105.294 1.38012Z" fill="white"/>
<path fill-rule="evenodd" clip-rule="evenodd" d="M130.93 20.0827H118.063L112.645 14.2922H122.45C123.566 14.2922 124.469 13.3663 124.469 12.2245C124.469 11.0817 123.566 10.1562 122.45 10.1562H107.914C107.105 10.1562 106.375 10.6507 106.057 11.4122C105.739 12.1748 105.897 13.0567 106.456 13.6554L115.743 23.5819C116.124 23.9888 116.65 24.2187 117.201 24.2187H130.93C132.044 24.2187 132.948 23.2938 132.948 22.151C132.948 21.0082 132.044 20.0827 130.93 20.0827Z" fill="white"/>
<path fill-rule="evenodd" clip-rule="evenodd" d="M130.928 0.78125H117.19C116.075 0.78125 115.17 1.65579 115.17 2.73363C115.17 3.81296 116.075 4.6875 117.19 4.6875H130.928C132.044 4.6875 132.948 3.81296 132.948 2.73363C132.948 1.65579 132.044 0.78125 130.928 0.78125Z" fill="white"/>
<path fill-rule="evenodd" clip-rule="evenodd" d="M158.067 0C157 0 156.135 0.899035 156.135 2.00871V12.0538C156.135 13.164 157 14.0625 158.067 14.0625C159.134 14.0625 159.999 13.164 159.999 12.0538V2.00871C159.999 0.899035 159.134 0 158.067 0Z" fill="white"/>
<path fill-rule="evenodd" clip-rule="evenodd" d="M139.505 0.591102C138.926 0.0135214 138.05 -0.158731 137.292 0.154083C136.534 0.465874 136.039 1.20191 136.039 2.01767V22.2003C136.039 23.3156 136.948 24.2187 138.07 24.2187C139.192 24.2187 140.1 23.3156 140.1 22.2003V6.8898L156.534 23.2236C157.327 24.0123 158.613 24.0123 159.405 23.2236C160.199 22.4359 160.199 21.1576 159.405 20.3699L139.505 0.591102Z" fill="white"/>
<path fill-rule="evenodd" clip-rule="evenodd" d="M1.93215 0C0.865749 0 0 0.903162 0 2.01793V22.2008C0 23.3161 0.865749 24.2187 1.93215 24.2187C2.99954 24.2187 3.8648 23.3161 3.8648 22.2008V2.01793C3.8648 0.903162 2.99954 0 1.93215 0Z" fill="white"/>
<path fill-rule="evenodd" clip-rule="evenodd" d="M14.2242 11.9017L22.8784 3.45607C23.6811 2.67341 23.6894 1.39488 22.8986 0.601488C22.1078 -0.192417 20.817 -0.201619 20.0143 0.581039L9.88282 10.4688C9.49388 10.8476 9.27488 11.3675 9.27539 11.9079C9.27591 12.4492 9.49646 12.9676 9.88695 13.3469L20.4932 23.6411C20.8904 24.0265 21.4059 24.2187 21.9213 24.2187C22.4497 24.2187 22.9781 24.0163 23.3779 23.6135C24.1666 22.818 24.1537 21.5395 23.3495 20.7589L14.2242 11.9017Z" fill="white"/>
<path fill-rule="evenodd" clip-rule="evenodd" d="M83.9194 4.6875H93.8564C94.9547 4.6875 95.8446 3.81296 95.8446 2.73363C95.8446 1.65579 94.9547 0.78125 93.8564 0.78125H83.9194C82.8221 0.78125 81.9316 1.65579 81.9316 2.73363C81.9316 3.81296 82.8221 4.6875 83.9194 4.6875Z" fill="white"/>
</svg>
