<svg width="28" height="22" viewBox="0 0 28 22" fill="none" xmlns="http://www.w3.org/2000/svg">
<path d="M5.24974 0H9.84327C10.2042 0 10.4995 0.309375 10.4995 0.6875V2.0625C10.4995 2.44062 10.2042 2.75 9.84327 2.75H5.24974C3.8006 2.75 2.62487 3.98177 2.62487 5.5V16.5C2.62487 18.0182 3.8006 19.25 5.24974 19.25H9.84327C10.2042 19.25 10.4995 19.5594 10.4995 19.9375V21.3125C10.4995 21.6906 10.2042 22 9.84327 22H5.24974C2.35145 22 0 19.5365 0 16.5V5.5C0 2.46354 2.35145 0 5.24974 0ZM17.8874 1.11719L16.8156 2.2401C16.5531 2.5151 16.5586 2.95625 16.8265 3.21979L23.0114 9.51042H9.40579C9.04487 9.51042 8.74957 9.81979 8.74957 10.1979V11.8021C8.74957 12.1802 9.04487 12.4896 9.40579 12.4896H23.0114L16.8265 18.7745C16.564 19.0438 16.5586 19.4849 16.8156 19.7542L17.8874 20.8771C18.1444 21.1464 18.56 21.1464 18.8171 20.8771L27.8072 11.4812C28.0643 11.212 28.0643 10.7766 27.8072 10.5073L18.8171 1.11146C18.56 0.847917 18.1444 0.847917 17.8874 1.11719Z" fill="white"/>
</svg>
