<svg width="43" height="19" viewBox="0 0 43 19" fill="none" xmlns="http://www.w3.org/2000/svg">
<path d="M5.89266 9.978C5.89266 9.114 5.77866 8.502 5.55066 8.142C5.33466 7.782 4.95666 7.602 4.41666 7.602C4.24866 7.602 4.07466 7.614 3.89466 7.638C3.71466 7.65 3.54066 7.668 3.37266 7.692V15H0.690664V5.856C0.918664 5.796 1.18266 5.736 1.48266 5.676C1.79466 5.604 2.11866 5.544 2.45466 5.496C2.80266 5.436 3.15666 5.394 3.51666 5.37C3.87666 5.334 4.23066 5.316 4.57866 5.316C5.26266 5.316 5.81466 5.406 6.23466 5.586C6.66666 5.754 7.02066 5.958 7.29666 6.198C7.68066 5.922 8.11866 5.706 8.61066 5.55C9.11466 5.394 9.57666 5.316 9.99666 5.316C10.7527 5.316 11.3707 5.424 11.8507 5.64C12.3427 5.844 12.7327 6.138 13.0207 6.522C13.3087 6.906 13.5067 7.362 13.6147 7.89C13.7227 8.418 13.7767 9.006 13.7767 9.654V15H11.0947V9.978C11.0947 9.114 10.9807 8.502 10.7527 8.142C10.5367 7.782 10.1587 7.602 9.61866 7.602C9.47466 7.602 9.27066 7.638 9.00666 7.71C8.75466 7.782 8.54466 7.872 8.37666 7.98C8.46066 8.256 8.51466 8.55 8.53866 8.862C8.56266 9.162 8.57466 9.486 8.57466 9.834V15H5.89266V9.978ZM17.2561 18.33H14.5021L20.5501 0.905999H23.2681L17.2561 18.33ZM27.0504 8.952C27.3144 8.664 27.5844 8.364 27.8604 8.052C28.1484 7.74 28.4244 7.434 28.6884 7.134C28.9524 6.822 29.1984 6.528 29.4264 6.252C29.6664 5.976 29.8704 5.736 30.0384 5.532H33.2244C32.5884 6.264 31.9644 6.966 31.3524 7.638C30.7524 8.298 30.0924 8.982 29.3724 9.69C29.7324 10.014 30.1044 10.404 30.4884 10.86C30.8724 11.304 31.2444 11.766 31.6044 12.246C31.9644 12.726 32.2944 13.206 32.5944 13.686C32.8944 14.166 33.1464 14.604 33.3504 15H30.2724C30.0804 14.688 29.8584 14.346 29.6064 13.974C29.3664 13.59 29.1084 13.212 28.8324 12.84C28.5564 12.456 28.2624 12.09 27.9504 11.742C27.6504 11.394 27.3504 11.1 27.0504 10.86V15H24.3684V1.464L27.0504 1.032V8.952ZM36.4278 9.96C36.4278 11.46 37.0338 12.21 38.2458 12.21C38.5218 12.21 38.7798 12.174 39.0198 12.102C39.2598 12.03 39.4638 11.946 39.6318 11.85V7.566C39.4998 7.542 39.3438 7.524 39.1638 7.512C38.9838 7.488 38.7738 7.476 38.5338 7.476C37.8258 7.476 37.2978 7.71 36.9498 8.178C36.6018 8.646 36.4278 9.24 36.4278 9.96ZM42.3138 13.812C42.3138 15.36 41.9178 16.506 41.1258 17.25C40.3458 18.006 39.1338 18.384 37.4898 18.384C36.9138 18.384 36.3378 18.33 35.7618 18.222C35.1858 18.126 34.6518 17.994 34.1598 17.826L34.6278 15.576C35.0478 15.744 35.4858 15.876 35.9418 15.972C36.4098 16.068 36.9378 16.116 37.5258 16.116C38.2938 16.116 38.8338 15.948 39.1458 15.612C39.4698 15.276 39.6318 14.844 39.6318 14.316V13.974C39.3438 14.106 39.0438 14.208 38.7318 14.28C38.4318 14.34 38.1018 14.37 37.7418 14.37C36.4338 14.37 35.4318 13.986 34.7358 13.218C34.0398 12.438 33.6918 11.352 33.6918 9.96C33.6918 9.264 33.7998 8.634 34.0158 8.07C34.2318 7.494 34.5438 7.002 34.9518 6.594C35.3718 6.186 35.8818 5.874 36.4818 5.658C37.0818 5.43 37.7598 5.316 38.5158 5.316C38.8398 5.316 39.1698 5.334 39.5058 5.37C39.8538 5.394 40.1958 5.43 40.5318 5.478C40.8678 5.526 41.1858 5.586 41.4858 5.658C41.7978 5.718 42.0738 5.784 42.3138 5.856V13.812Z" fill="white"/>
</svg>
