<svg width="48" height="84" viewBox="0 0 48 84" fill="none" xmlns="http://www.w3.org/2000/svg">
<path d="M41.55 83.25H6.45C2.925 83.25 0 80.6375 0 77.3375V6.6625C0 3.43125 2.925 0.75 6.45 0.75H41.55C45.075 0.75 48 3.3625 48 6.6625V77.4062C48 80.6375 45.075 83.25 41.55 83.25Z" fill="#DE7D2C"/>
<path d="M41.0778 80.5775H5.94777C4.33527 80.5775 3.03027 79.3812 3.03027 77.9031V11.5112C3.03027 10.04 4.33527 8.84375 5.94027 8.84375H42.0528C43.6653 8.84375 44.9703 10.04 44.9703 11.5181V77.47C44.9703 78.1094 43.9203 80.5775 41.0778 80.5775Z" fill="black"/>
<path d="M31.2375 5.96641H16.8375C16.3125 5.96641 15.9375 5.55391 15.9375 5.14141C15.9375 4.72891 16.3875 4.31641 16.8375 4.31641H31.1625C31.6875 4.31641 32.0625 4.72891 32.0625 5.14141C32.0625 5.55391 31.6875 5.96641 31.2375 5.96641Z" fill="#212121"/>
<path d="M41.55 2.125C44.28 2.125 46.5 4.16 46.5 6.6625V77.4062C46.5 79.8675 44.28 81.875 41.55 81.875H6.45C3.72 81.875 1.5 79.84 1.5 77.3375V6.6625C1.5 4.20125 3.765 2.125 6.45 2.125H41.55ZM41.55 0.75H6.45C2.925 0.75 0 3.43125 0 6.6625V77.3375C0 80.6375 2.925 83.25 6.45 83.25H41.55C45.075 83.25 48 80.6375 48 77.4062V6.6625C48 3.3625 45.075 0.75 41.55 0.75Z" fill="#DE7D2C"/>
<path d="M12.2629 18.5977H7.49293C6.94543 18.5977 6.50293 18.192 6.50293 17.6902V13.3177C6.50293 12.8158 6.94543 12.4102 7.49293 12.4102H12.2629C12.8104 12.4102 13.2529 12.8158 13.2529 13.3177V17.6902C13.2529 18.192 12.8104 18.5977 12.2629 18.5977Z" fill="black"/>
<path d="M21.675 18.5977H16.905C16.3575 18.5977 15.915 18.192 15.915 17.6902V13.3177C15.915 12.8158 16.3575 12.4102 16.905 12.4102H21.675C22.2225 12.4102 22.665 12.8158 22.665 13.3177V17.6902C22.665 18.192 22.2225 18.5977 21.675 18.5977Z" fill="black"/>
<path d="M31.0875 18.5977H26.325C25.7775 18.5977 25.335 18.192 25.335 17.6902V13.3177C25.335 12.8158 25.7775 12.4102 26.325 12.4102H31.095C31.6425 12.4102 32.085 12.8158 32.085 13.3177V17.6902C32.085 18.192 31.6425 18.5977 31.0875 18.5977Z" fill="black"/>
<path d="M40.5071 18.5977H35.7371C35.1896 18.5977 34.7471 18.192 34.7471 17.6902V13.3177C34.7471 12.8158 35.1896 12.4102 35.7371 12.4102H40.5071C41.0546 12.4102 41.4971 12.8158 41.4971 13.3177V17.6902C41.4971 18.192 41.0546 18.5977 40.5071 18.5977Z" fill="black"/>
<path d="M12.2629 28.332H7.49293C6.94543 28.332 6.50293 27.9264 6.50293 27.4245V23.052C6.50293 22.5502 6.94543 22.1445 7.49293 22.1445H12.2629C12.8104 22.1445 13.2529 22.5502 13.2529 23.052V27.4245C13.2529 27.9264 12.8104 28.332 12.2629 28.332Z" fill="black"/>
<path d="M21.675 28.332H16.905C16.3575 28.332 15.915 27.9264 15.915 27.4245V23.052C15.915 22.5502 16.3575 22.1445 16.905 22.1445H21.675C22.2225 22.1445 22.665 22.5502 22.665 23.052V27.4245C22.665 27.9264 22.2225 28.332 21.675 28.332Z" fill="black"/>
<path d="M31.0875 28.332H26.325C25.7775 28.332 25.335 27.9264 25.335 27.4245V23.052C25.335 22.5502 25.7775 22.1445 26.325 22.1445H31.095C31.6425 22.1445 32.085 22.5502 32.085 23.052V27.4245C32.085 27.9264 31.6425 28.332 31.0875 28.332Z" fill="black"/>
<path d="M40.5071 28.332H35.7371C35.1896 28.332 34.7471 27.9264 34.7471 27.4245V23.052C34.7471 22.5502 35.1896 22.1445 35.7371 22.1445H40.5071C41.0546 22.1445 41.4971 22.5502 41.4971 23.052V27.4245C41.4971 27.9264 41.0546 28.332 40.5071 28.332Z" fill="black"/>
<path d="M12.2629 38.0664H7.49293C6.94543 38.0664 6.50293 37.6608 6.50293 37.1589V32.7864C6.50293 32.2845 6.94543 31.8789 7.49293 31.8789H12.2629C12.8104 31.8789 13.2529 32.2845 13.2529 32.7864V37.1589C13.2529 37.6608 12.8104 38.0664 12.2629 38.0664Z" fill="black"/>
<path d="M21.675 38.0664H16.905C16.3575 38.0664 15.915 37.6608 15.915 37.1589V32.7864C15.915 32.2845 16.3575 31.8789 16.905 31.8789H21.675C22.2225 31.8789 22.665 32.2845 22.665 32.7864V37.1589C22.665 37.6608 22.2225 38.0664 21.675 38.0664Z" fill="black"/>
<path d="M31.0875 38.0664H26.325C25.7775 38.0664 25.335 37.6608 25.335 37.1589V32.7864C25.335 32.2845 25.7775 31.8789 26.325 31.8789H31.095C31.6425 31.8789 32.085 32.2845 32.085 32.7864V37.1589C32.085 37.6608 31.6425 38.0664 31.0875 38.0664Z" fill="black"/>
<path d="M40.5071 38.0664H35.7371C35.1896 38.0664 34.7471 37.6608 34.7471 37.1589V32.7864C34.7471 32.2845 35.1896 31.8789 35.7371 31.8789H40.5071C41.0546 31.8789 41.4971 32.2845 41.4971 32.7864V37.1589C41.4971 37.6608 41.0546 38.0664 40.5071 38.0664Z" fill="black"/>
<path d="M12.2629 47.8008H7.49293C6.94543 47.8008 6.50293 47.3952 6.50293 46.8933V42.5208C6.50293 42.0189 6.94543 41.6133 7.49293 41.6133H12.2629C12.8104 41.6133 13.2529 42.0189 13.2529 42.5208V46.8933C13.2529 47.3952 12.8104 47.8008 12.2629 47.8008Z" fill="black"/>
<path d="M21.675 47.8008H16.905C16.3575 47.8008 15.915 47.3952 15.915 46.8933V42.5208C15.915 42.0189 16.3575 41.6133 16.905 41.6133H21.675C22.2225 41.6133 22.665 42.0189 22.665 42.5208V46.8933C22.665 47.3952 22.2225 47.8008 21.675 47.8008Z" fill="black"/>
<path d="M12.2629 77.0078H7.49293C6.94543 77.0078 6.50293 76.6022 6.50293 76.1003V71.7278C6.50293 71.2259 6.94543 70.8203 7.49293 70.8203H12.2629C12.8104 70.8203 13.2529 71.2259 13.2529 71.7278V76.1003C13.2529 76.5953 12.8104 77.0078 12.2629 77.0078Z" fill="black"/>
<path d="M21.675 77.0078H16.905C16.3575 77.0078 15.915 76.6022 15.915 76.1003V71.7278C15.915 71.2259 16.3575 70.8203 16.905 70.8203H21.675C22.2225 70.8203 22.665 71.2259 22.665 71.7278V76.1003C22.665 76.5953 22.2225 77.0078 21.675 77.0078Z" fill="black"/>
<path d="M31.0875 77.0078H26.325C25.7775 77.0078 25.335 76.6022 25.335 76.1003V71.7278C25.335 71.2259 25.7775 70.8203 26.325 70.8203H31.095C31.6425 70.8203 32.085 71.2259 32.085 71.7278V76.1003C32.085 76.5953 31.6425 77.0078 31.0875 77.0078Z" fill="black"/>
<path d="M40.5071 77.0078H35.7371C35.1896 77.0078 34.7471 76.6022 34.7471 76.1003V71.7278C34.7471 71.2259 35.1896 70.8203 35.7371 70.8203H40.5071C41.0546 70.8203 41.4971 71.2259 41.4971 71.7278V76.1003C41.4971 76.5953 41.0546 77.0078 40.5071 77.0078Z" fill="black"/>
</svg>
