<svg width="280" height="404" viewBox="0 0 280 404" fill="none" xmlns="http://www.w3.org/2000/svg">
<path d="M384.514 106.642C394.723 106.642 403 113.463 403 121.877C403 130.29 394.723 137.111 384.514 137.111L199.425 137.111C189.215 137.111 180.939 130.29 180.939 121.877C180.939 113.463 189.215 106.642 199.425 106.642L384.514 106.642Z" fill="url(#paint0_linear)"/>
<path d="M344.058 68.5556C344.058 60.1418 335.781 53.321 325.572 53.321L140.483 53.321C130.273 53.321 121.997 60.1417 121.997 68.5556C121.997 76.9694 130.273 83.7901 140.483 83.7901L325.572 83.7901C335.781 83.7901 344.058 76.9694 344.058 68.5556Z" fill="url(#paint1_linear)"/>
<path d="M266.629 -5.96095e-06C276.839 -5.51467e-06 285.116 6.82074 285.116 15.2346C285.116 23.6484 276.839 30.4691 266.629 30.4691L81.5407 30.4691C71.331 30.4691 63.0545 23.6484 63.0545 15.2345C63.0545 6.82073 71.3311 -1.44977e-05 81.5407 -1.40514e-05L266.629 -5.96095e-06Z" fill="url(#paint2_linear)"/>
<path d="M168.602 121.877C168.602 113.463 160.325 106.642 150.116 106.642L129.517 106.642C119.307 106.642 111.031 113.463 111.031 121.877C111.031 130.29 119.307 137.111 129.517 137.111L150.116 137.111C160.325 137.111 168.602 130.29 168.602 121.877Z" fill="url(#paint3_linear)"/>
<path d="M244.697 213.284C254.907 213.284 263.184 220.105 263.184 228.519C263.184 236.932 254.907 243.753 244.697 243.753L204.908 243.753C194.698 243.753 186.422 236.932 186.422 228.519C186.422 220.105 194.698 213.284 204.908 213.284L244.697 213.284Z" fill="url(#paint4_linear)"/>
<path d="M315.272 175.198C315.272 166.784 306.996 159.963 296.786 159.963L111.697 159.963C101.487 159.963 93.2109 166.784 93.2109 175.198C93.2109 183.611 101.487 190.432 111.697 190.432L296.786 190.432C306.996 190.432 315.272 183.611 315.272 175.198Z" fill="url(#paint5_linear)"/>
<path d="M139.15 213.284C149.36 213.284 157.636 220.105 157.636 228.519C157.636 236.932 149.359 243.753 139.15 243.753L67.8332 243.753C57.6235 243.753 49.3469 236.932 49.3469 228.519C49.3469 220.105 57.6236 213.284 67.8332 213.284L139.15 213.284Z" fill="url(#paint6_linear)"/>
<path d="M277.487 281.84C277.487 273.426 269.21 266.605 259 266.605L18.4863 266.605C8.2766 266.605 4.90833e-05 273.426 4.87156e-05 281.839C4.83478e-05 290.253 8.2766 297.074 18.4863 297.074L259 297.074C269.21 297.074 277.487 290.253 277.487 281.84Z" fill="url(#paint7_linear)"/>
<path d="M283.202 319.926C293.411 319.926 301.688 326.747 301.688 335.161C301.688 343.574 293.411 350.395 283.202 350.395L69.204 350.395C58.9943 350.395 50.7177 343.574 50.7177 335.161C50.7177 326.747 58.9943 319.926 69.204 319.926L283.202 319.926Z" fill="url(#paint8_linear)"/>
<path d="M307.048 388.481C307.048 380.068 298.771 373.247 288.561 373.247L103.473 373.247C93.263 373.247 84.9864 380.068 84.9864 388.481C84.9864 396.895 93.263 403.716 103.473 403.716L288.561 403.716C298.771 403.716 307.048 396.895 307.048 388.481Z" fill="url(#paint9_linear)"/>
<defs>
<linearGradient id="paint0_linear" x1="259.732" y1="102.071" x2="19.0863" y2="78.3435" gradientUnits="userSpaceOnUse">
<stop stop-color="#DE7D2C"/>
<stop offset="1" stop-color="#FFD600" stop-opacity="0"/>
</linearGradient>
<linearGradient id="paint1_linear" x1="259.732" y1="102.071" x2="19.0863" y2="78.3435" gradientUnits="userSpaceOnUse">
<stop stop-color="#DE7D2C"/>
<stop offset="1" stop-color="#FFD600" stop-opacity="0"/>
</linearGradient>
<linearGradient id="paint2_linear" x1="259.732" y1="102.071" x2="19.0863" y2="78.3435" gradientUnits="userSpaceOnUse">
<stop stop-color="#DE7D2C"/>
<stop offset="1" stop-color="#FFD600" stop-opacity="0"/>
</linearGradient>
<linearGradient id="paint3_linear" x1="259.732" y1="102.071" x2="19.0863" y2="78.3435" gradientUnits="userSpaceOnUse">
<stop stop-color="#DE7D2C"/>
<stop offset="1" stop-color="#FFD600" stop-opacity="0"/>
</linearGradient>
<linearGradient id="paint4_linear" x1="259.732" y1="102.071" x2="19.0863" y2="78.3435" gradientUnits="userSpaceOnUse">
<stop stop-color="#DE7D2C"/>
<stop offset="1" stop-color="#FFD600" stop-opacity="0"/>
</linearGradient>
<linearGradient id="paint5_linear" x1="259.732" y1="102.071" x2="19.0863" y2="78.3435" gradientUnits="userSpaceOnUse">
<stop stop-color="#DE7D2C"/>
<stop offset="1" stop-color="#FFD600" stop-opacity="0"/>
</linearGradient>
<linearGradient id="paint6_linear" x1="259.732" y1="102.071" x2="19.0863" y2="78.3435" gradientUnits="userSpaceOnUse">
<stop stop-color="#DE7D2C"/>
<stop offset="1" stop-color="#FFD600" stop-opacity="0"/>
</linearGradient>
<linearGradient id="paint7_linear" x1="259.732" y1="102.071" x2="19.0863" y2="78.3435" gradientUnits="userSpaceOnUse">
<stop stop-color="#DE7D2C"/>
<stop offset="1" stop-color="#FFD600" stop-opacity="0"/>
</linearGradient>
<linearGradient id="paint8_linear" x1="259.732" y1="102.071" x2="19.0863" y2="78.3435" gradientUnits="userSpaceOnUse">
<stop stop-color="#DE7D2C"/>
<stop offset="1" stop-color="#FFD600" stop-opacity="0"/>
</linearGradient>
<linearGradient id="paint9_linear" x1="259.732" y1="102.071" x2="19.0863" y2="78.3435" gradientUnits="userSpaceOnUse">
<stop stop-color="#DE7D2C"/>
<stop offset="1" stop-color="#FFD600" stop-opacity="0"/>
</linearGradient>
</defs>
</svg>
