<svg width="23" height="23" viewBox="0 0 23 23" fill="none" xmlns="http://www.w3.org/2000/svg">
<path d="M21.7204 1.2796L19.3771 3.62295C17.3612 1.60672 14.5765 0.359375 11.5 0.359375C5.53563 0.359375 0.665922 5.04643 0.373301 10.9382C0.358072 11.2444 0.605322 11.5 0.911959 11.5H2.17179C2.45718 11.5 2.69347 11.2775 2.70964 10.9927C2.97208 6.36314 6.80355 2.69531 11.5 2.69531C13.9331 2.69531 16.134 3.68013 17.7268 5.2732L15.2953 7.70478C14.9557 8.04438 15.1962 8.625 15.6764 8.625H22.1016C22.3993 8.625 22.6406 8.38363 22.6406 8.08594V1.66081C22.6406 1.18055 22.06 0.940035 21.7204 1.2796ZM22.088 11.5H20.8282C20.5428 11.5 20.3065 11.7225 20.2904 12.0073C20.0279 16.6369 16.1964 20.3047 11.5 20.3047C9.0669 20.3047 6.86599 19.3199 5.2732 17.7268L7.70473 15.2952C8.04434 14.9556 7.80383 14.375 7.32357 14.375H0.898438C0.60074 14.375 0.359375 14.6164 0.359375 14.9141V21.3392C0.359375 21.8195 0.940035 22.06 1.2796 21.7204L3.62295 19.3771C5.63882 21.3933 8.42357 22.6406 11.5 22.6406C17.4644 22.6406 22.3341 17.9536 22.6267 12.0618C22.6419 11.7556 22.3947 11.5 22.088 11.5Z" fill="white"/>
</svg>
