<svg width="25" height="25" viewBox="0 0 25 25" fill="none" xmlns="http://www.w3.org/2000/svg">
<path fill-rule="evenodd" clip-rule="evenodd" d="M2.09375 11.1651C2.09375 6.15513 6.15513 2.09375 11.1651 2.09375C16.175 2.09375 20.2364 6.15513 20.2364 11.1651C20.2364 13.6121 19.2675 15.8328 17.6924 17.4646C17.6498 17.4954 17.609 17.53 17.5706 17.5685C17.5321 17.6069 17.4974 17.6478 17.4665 17.6905C15.8346 19.2667 13.6131 20.2364 11.1651 20.2364C6.15513 20.2364 2.09375 16.175 2.09375 11.1651ZM18.256 19.668C16.3352 21.2715 13.8628 22.2364 11.1651 22.2364C5.05056 22.2364 0.09375 17.2796 0.09375 11.1651C0.09375 5.05056 5.05056 0.09375 11.1651 0.09375C17.2796 0.09375 22.2364 5.05056 22.2364 11.1651C22.2364 13.8617 21.2723 16.3332 19.67 18.2536L24.4611 23.0447C24.8516 23.4353 24.8516 24.0684 24.4611 24.459C24.0706 24.8495 23.4374 24.8495 23.0469 24.459L18.256 19.668Z" fill="#DE7D2C"/>
</svg>
