<svg width="20" height="20" viewBox="0 0 20 20" fill="none" xmlns="http://www.w3.org/2000/svg">
<path fill-rule="evenodd" clip-rule="evenodd" d="M2 9C2 5.13401 5.13401 2 9 2C12.866 2 16 5.13401 16 9C16 10.8866 15.2537 12.5988 14.0402 13.8576C14.0064 13.8837 13.9738 13.9123 13.9428 13.9433C13.9118 13.9743 13.8833 14.0068 13.8572 14.0406C12.5984 15.2539 10.8863 16 9 16C5.13401 16 2 12.866 2 9ZM14.6174 16.0321C13.0778 17.2636 11.1249 18 9 18C4.02944 18 0 13.9706 0 9C0 4.02944 4.02944 0 9 0C13.9706 0 18 4.02944 18 9C18 11.1251 17.2634 13.0782 16.0317 14.618L19.707 18.2933C20.0975 18.6838 20.0975 19.317 19.707 19.7075C19.3165 20.098 18.6833 20.098 18.2928 19.7075L14.6174 16.0321Z" fill="white"/>
</svg>
