<svg width="35" height="35" viewBox="0 0 35 35" fill="none" xmlns="http://www.w3.org/2000/svg">
<path fill-rule="evenodd" clip-rule="evenodd" d="M16.1083 2.63027C16.4774 2.26115 16.978 2.05379 17.5 2.05379C18.022 2.05379 18.5226 2.26115 18.8917 2.63027C19.2608 2.99938 19.4682 3.5 19.4682 4.02201V4.15679L19.4682 4.16088C19.4709 4.84304 19.6731 5.50952 20.0497 6.07827C20.4254 6.64549 20.9582 7.09082 21.5831 7.35977C22.2212 7.64019 22.9285 7.72361 23.6144 7.59924C24.3021 7.47455 24.9367 7.14671 25.4363 6.65799L25.4363 6.65803L25.4443 6.65002L25.5342 6.56017L25.5346 6.55977C25.7174 6.37677 25.9345 6.2316 26.1734 6.13255C26.4123 6.0335 26.6685 5.98252 26.9271 5.98252C27.1858 5.98252 27.4419 6.0335 27.6808 6.13255C27.9198 6.2316 28.1368 6.37677 28.3196 6.55977L28.3204 6.56057C28.5034 6.74337 28.6486 6.96044 28.7476 7.19938C28.8467 7.43832 28.8977 7.69443 28.8977 7.95309C28.8977 8.21174 28.8467 8.46786 28.7476 8.7068C28.6486 8.94573 28.5034 9.1628 28.3204 9.3456L28.32 9.34601L28.2302 9.43586L28.2301 9.43581L28.2222 9.44391C27.7335 9.94353 27.4056 10.5781 27.281 11.2658C27.1696 11.88 27.2248 12.5114 27.4389 13.0948C27.4483 13.2039 27.475 13.3109 27.5182 13.4119C27.787 14.0389 28.2332 14.5736 28.8019 14.9503C29.3707 15.3269 30.0372 15.5291 30.7193 15.5318L30.7234 15.5318H30.978C31.5 15.5318 32.0006 15.7392 32.3697 16.1083C32.7388 16.4774 32.9462 16.978 32.9462 17.5C32.9462 18.022 32.7388 18.5226 32.3697 18.8917C32.0006 19.2609 31.5 19.4682 30.978 19.4682L30.8432 19.4682L30.8391 19.4682C30.157 19.4709 29.4905 19.6731 28.9217 20.0497C28.3545 20.4253 27.9092 20.9582 27.6403 21.583C27.3598 22.2211 27.2764 22.9285 27.4008 23.6144C27.5255 24.3021 27.8533 24.9367 28.342 25.4363L28.342 25.4363L28.35 25.4444L28.4398 25.5342L28.4402 25.5346C28.6232 25.7174 28.7684 25.9345 28.8675 26.1734C28.9665 26.4123 29.0175 26.6685 29.0175 26.9271C29.0175 27.1858 28.9665 27.4419 28.8675 27.6808C28.7684 27.9198 28.6232 28.1368 28.4402 28.3196L28.4394 28.3204C28.2566 28.5034 28.0396 28.6486 27.8006 28.7476C27.5617 28.8467 27.3056 28.8977 27.0469 28.8977C26.7883 28.8977 26.5321 28.8467 26.2932 28.7476C26.0543 28.6486 25.8372 28.5034 25.6544 28.3204L25.654 28.32L25.5641 28.2302L25.5642 28.2301L25.5561 28.2222C25.0565 27.7335 24.4219 27.4056 23.7342 27.281C23.0483 27.1566 22.3409 27.24 21.7028 27.5205C21.078 27.7894 20.5452 28.2347 20.1695 28.8019C19.7929 29.3707 19.5907 30.0372 19.588 30.7193L19.588 30.7234V30.978C19.588 31.5 19.3807 32.0006 19.0115 32.3697C18.6424 32.7388 18.1418 32.9462 17.6198 32.9462C17.0978 32.9462 16.5972 32.7388 16.2281 32.3697C15.859 32.0006 15.6516 31.5 15.6516 30.978V30.8432L15.6513 30.8192C15.6349 30.1175 15.4078 29.437 14.9995 28.8661C14.5974 28.304 14.0381 27.8738 13.3922 27.6295C12.7606 27.3577 12.0626 27.278 11.3856 27.4008C10.6979 27.5255 10.0633 27.8533 9.56371 28.342L9.56367 28.342L9.55565 28.35L9.4658 28.4398L9.4654 28.4402C9.28261 28.6232 9.06554 28.7684 8.8266 28.8675C8.58766 28.9665 8.33154 29.0175 8.07289 29.0175C7.81424 29.0175 7.55812 28.9665 7.31918 28.8675C7.08024 28.7684 6.86317 28.6232 6.68038 28.4402L6.67957 28.4394C6.49657 28.2566 6.3514 28.0396 6.25235 27.8006C6.1533 27.5617 6.10232 27.3056 6.10232 27.0469C6.10232 26.7883 6.1533 26.5321 6.25235 26.2932C6.3514 26.0543 6.49657 25.8372 6.67957 25.6544L6.67997 25.654L6.76983 25.5641L6.76987 25.5642L6.77779 25.5561C7.26651 25.0565 7.59435 24.4219 7.71905 23.7342C7.84341 23.0483 7.76 22.341 7.4796 21.7029C7.21064 21.0781 6.76531 20.5452 6.19808 20.1695C5.62932 19.7929 4.96285 19.5907 4.28068 19.588H4.27659H4.02201C3.5 19.588 2.99938 19.3807 2.63027 19.0115C2.26115 18.6424 2.05379 18.1418 2.05379 17.6198C2.05379 17.0978 2.26115 16.5972 2.63027 16.2281C2.99938 15.859 3.5 15.6516 4.02201 15.6516H4.15679L4.1808 15.6513C4.88248 15.6349 5.56299 15.4078 6.13387 14.9995C6.69595 14.5974 7.12616 14.0381 7.37053 13.3922C7.64231 12.7606 7.722 12.0626 7.59924 11.3856C7.47455 10.6979 7.14671 10.0633 6.65799 9.56371L6.65803 9.56367L6.65002 9.55566L6.56017 9.46581L6.55977 9.4654C6.37677 9.28261 6.2316 9.06554 6.13255 8.8266C6.0335 8.58766 5.98252 8.33154 5.98252 8.07289C5.98252 7.81424 6.0335 7.55812 6.13255 7.31918C6.2316 7.08024 6.37677 6.86317 6.55977 6.68038L6.56057 6.67957C6.74337 6.49657 6.96044 6.3514 7.19938 6.25235C7.43832 6.1533 7.69443 6.10232 7.95309 6.10232C8.21174 6.10232 8.46786 6.1533 8.7068 6.25235C8.94573 6.3514 9.16281 6.49657 9.3456 6.67957L9.346 6.67998L9.43586 6.76983L9.43581 6.76987L9.44391 6.77779C9.94353 7.26651 10.5781 7.59435 11.2658 7.71905C11.88 7.83041 12.5114 7.77517 13.0948 7.56106C13.2039 7.55173 13.3109 7.52502 13.4119 7.48176C14.0389 7.21303 14.5736 6.76683 14.9503 6.19808C15.3269 5.62932 15.5291 4.96285 15.5318 4.28068H15.5318V4.27659V4.02201C15.5318 3.5 15.7392 2.99938 16.1083 2.63027ZM29.5214 22.4073L28.5819 21.9926L29.5258 22.3972C29.6367 22.1383 29.8209 21.9176 30.0557 21.7621C30.2901 21.6069 30.5646 21.5235 30.8456 21.522H30.978C32.0447 21.522 33.0677 21.0983 33.822 20.344C34.5763 19.5897 35 18.5667 35 17.5C35 16.4333 34.5763 15.4103 33.822 14.656C33.0677 13.9017 32.0447 13.478 30.978 13.478H30.7256C30.4446 13.4765 30.1702 13.3931 29.9359 13.2379C29.7474 13.1131 29.5915 12.9461 29.4799 12.7512C29.4671 12.6554 29.4408 12.5617 29.4016 12.4729C29.2851 12.2089 29.2503 11.9161 29.3018 11.6322C29.353 11.3499 29.4871 11.0893 29.687 10.8836L29.7719 10.7987L29.7723 10.7982C30.146 10.4248 30.4426 9.98136 30.6449 9.49327C30.8473 9.00501 30.9515 8.48164 30.9515 7.95309C30.9515 7.42453 30.8473 6.90116 30.6449 6.4129C30.4426 5.92499 30.1462 5.48169 29.7727 5.10833C29.3991 4.73438 28.9556 4.43772 28.4673 4.23531C27.979 4.03291 27.4557 3.92873 26.9271 3.92873C26.3986 3.92873 25.8752 4.03291 25.3869 4.23531C24.8987 4.43772 24.4551 4.73437 24.0815 5.10833L23.9966 5.19325C23.7909 5.39311 23.5303 5.52722 23.248 5.5784C22.9641 5.62988 22.6713 5.59513 22.4073 5.47862L22.4073 5.47857L22.3972 5.47423C22.1383 5.36329 21.9176 5.17908 21.7621 4.94427C21.6069 4.70994 21.5235 4.43543 21.522 4.1544V4.02201C21.522 2.9553 21.0983 1.93229 20.344 1.17802C19.5897 0.423746 18.5667 0 17.5 0C16.4333 0 15.4103 0.423746 14.656 1.17802C13.9017 1.93229 13.478 2.9553 13.478 4.02201V4.27439C13.4765 4.55535 13.3931 4.8298 13.2379 5.06408C13.1131 5.25262 12.9461 5.40853 12.7512 5.52009C12.6554 5.53292 12.5617 5.55923 12.4729 5.59843C12.2089 5.71493 11.9161 5.74968 11.6322 5.69821C11.3499 5.64702 11.0893 5.51292 10.8836 5.31305L10.7987 5.22813L10.0721 5.95385L10.7983 5.22773C10.4248 4.85396 9.98136 4.55745 9.49327 4.35512C9.00501 4.15271 8.48164 4.04853 7.95309 4.04853C7.42453 4.04853 6.90116 4.15271 6.4129 4.35512C5.92494 4.55739 5.48161 4.85381 5.10822 5.22743C4.73432 5.60094 4.4377 6.04449 4.23531 6.5327C4.03291 7.02097 3.92873 7.54434 3.92873 8.07289C3.92873 8.60145 4.03291 9.12482 4.23531 9.61308C4.43772 10.1013 4.73437 10.5449 5.10833 10.9185L5.19323 11.0034C5.3931 11.2091 5.52721 11.4697 5.5784 11.752C5.62988 12.0359 5.59513 12.3287 5.47862 12.5927C5.46989 12.6125 5.46178 12.6326 5.45431 12.6529C5.35429 12.9248 5.17477 13.1604 4.93909 13.329C4.70623 13.4955 4.42918 13.589 4.14318 13.5978H4.02201C2.9553 13.5978 1.93229 14.0215 1.17802 14.7758C0.423746 15.5301 0 16.5531 0 17.6198C0 18.6865 0.423746 19.7095 1.17802 20.4638C1.93229 21.2181 2.9553 21.6418 4.02201 21.6418H4.27421C4.55523 21.6433 4.82975 21.7267 5.06408 21.8819C5.29888 22.0374 5.4831 22.2581 5.59404 22.517L5.59398 22.517L5.59843 22.5271C5.71493 22.7911 5.74968 23.0839 5.69821 23.3678C5.64702 23.6501 5.51292 23.9107 5.31305 24.1164L5.22813 24.2013C4.85418 24.5749 4.55752 25.0185 4.35512 25.5067C4.15271 25.995 4.04853 26.5184 4.04853 27.0469C4.04853 27.5755 4.15271 28.0988 4.35512 28.5871C4.55737 29.075 4.85375 29.5183 5.22732 29.8917C5.60086 30.2656 6.04444 30.5623 6.5327 30.7647C7.02097 30.9671 7.54434 31.0713 8.07289 31.0713C8.60145 31.0713 9.12482 30.9671 9.61308 30.7647C10.1013 30.5623 10.5449 30.2656 10.9185 29.8917L11.0033 29.8068C11.2091 29.6069 11.4697 29.4728 11.752 29.4216C12.0359 29.3701 12.3287 29.4049 12.5927 29.5214C12.6125 29.5301 12.6326 29.5382 12.6529 29.5457C12.9248 29.6457 13.1604 29.8252 13.329 30.0609C13.4955 30.2938 13.589 30.5708 13.5978 30.8568V30.978C13.5978 32.0447 14.0215 33.0677 14.7758 33.822C15.5301 34.5763 16.5531 35 17.6198 35C18.6865 35 19.7095 34.5763 20.4638 33.822C21.2181 33.0677 21.6418 32.0447 21.6418 30.978V30.7258C21.6433 30.4448 21.7267 30.1703 21.8819 29.9359C22.0374 29.7011 22.2581 29.5169 22.517 29.406L22.517 29.406L22.5271 29.4016C22.7911 29.2851 23.0839 29.2503 23.3678 29.3018C23.6501 29.353 23.9107 29.4871 24.1164 29.6869L24.2013 29.7719L24.927 29.047L24.2017 29.7723C24.5752 30.146 25.0186 30.4426 25.5067 30.6449C25.995 30.8473 26.5184 30.9515 27.0469 30.9515C27.5755 30.9515 28.0988 30.8473 28.5871 30.6449C29.075 30.4426 29.5183 30.1462 29.8917 29.7727C30.2656 29.3991 30.5623 28.9556 30.7647 28.4673C30.9671 27.979 31.0713 27.4557 31.0713 26.9271C31.0713 26.3986 30.9671 25.8752 30.7647 25.3869C30.5623 24.8987 30.2656 24.4551 29.8917 24.0815L29.8068 23.9966C29.6069 23.7909 29.4728 23.5303 29.4216 23.248C29.3701 22.9641 29.4049 22.6713 29.5214 22.4073ZM29.8917 29.7727L29.8925 29.7719L29.166 29.0461L29.8917 29.7727ZM24.1164 29.6869L24.1119 29.6824L24.838 28.9563L24.1199 29.6904L24.1164 29.6869ZM21.6418 30.7258L21.6418 30.7275L20.6149 30.7234H21.6418V30.7258ZM13.5978 30.8568V30.8432H14.6247L13.5981 30.8672L13.5978 30.8568ZM11.0033 29.8068L10.9999 29.8102L10.2818 29.0761L11.0079 29.8022L11.0033 29.8068ZM10.9185 29.8917L10.9181 29.8921L10.1919 29.166L10.9185 29.8917ZM5.22732 29.8917L5.95385 29.166L5.22813 29.8925L5.22732 29.8917ZM5.22813 24.2013L5.95385 24.9279L5.22773 24.2017L5.22813 24.2013ZM5.31305 24.1164L5.31758 24.1119L6.0437 24.838L5.30962 24.1199L5.31305 24.1164ZM4.27421 21.6418L4.27249 21.6418L4.27659 20.6149V21.6418H4.27421ZM4.14318 13.5978H4.15679V14.6247L4.13277 13.5981L4.14318 13.5978ZM5.19323 11.0034L5.18981 10.9999L5.9239 10.2818L5.19778 11.0079L5.19323 11.0034ZM5.10833 10.9185L5.10792 10.9181L5.83405 10.1919L5.10833 10.9185ZM5.10822 5.22743C5.10798 5.22766 5.10775 5.2279 5.10752 5.22813L5.83405 5.95385L5.10833 5.22732C5.10829 5.22736 5.10825 5.2274 5.10822 5.22743ZM10.8836 5.31305L10.8881 5.31758L10.162 6.0437L10.8801 5.30962L10.8836 5.31305ZM12.7512 5.52009C12.7963 5.51405 12.8418 5.511 12.8875 5.511H13.0073V6.5379L12.8875 6.25836L12.6028 5.59404C12.6538 5.57218 12.7033 5.54747 12.7512 5.52009ZM13.478 4.27439L13.478 4.27249L14.5049 4.27659H13.478V4.27439ZM14.0341 17.5C14.0341 15.5859 15.5857 14.0343 17.4998 14.0343C19.4139 14.0343 20.9656 15.5859 20.9656 17.5C20.9656 19.4141 19.4139 20.9658 17.4998 20.9658C15.5857 20.9658 14.0341 19.4141 14.0341 17.5ZM17.4998 11.9805C14.4515 11.9805 11.9803 14.4517 11.9803 17.5C11.9803 20.5484 14.4515 23.0196 17.4998 23.0196C20.5482 23.0196 23.0194 20.5484 23.0194 17.5C23.0194 14.4517 20.5482 11.9805 17.4998 11.9805Z" fill="white"/>
</svg>
