<svg width="21" height="22" viewBox="0 0 21 22" fill="none" xmlns="http://www.w3.org/2000/svg">
<path d="M21 13.5772C21 13.2054 20.805 12.8534 20.477 12.658L19.0845 11.8428C19.1118 11.5628 19.1254 11.2814 19.1254 11C19.1254 10.7186 19.1118 10.4372 19.0845 10.1572L20.477 9.34201C20.805 9.14659 21 8.79459 21 8.42282C21 7.509 18.9131 2.91526 17.4235 2.91526C17.2439 2.91526 17.0634 2.96222 16.9002 3.0595L15.513 3.87458C15.0598 3.54191 14.5793 3.25909 14.0714 3.0262V1.39597C14.0714 0.913602 13.7547 0.492121 13.2959 0.37009C12.384 0.123363 11.4433 0 10.5021 0C9.56069 0 8.61873 0.123363 7.70407 0.37009C7.24528 0.492121 6.92858 0.913602 6.92858 1.39597V3.0262C6.42071 3.25909 5.94021 3.54191 5.48696 3.87458L4.09984 3.0595C3.93671 2.96222 3.7561 2.91526 3.57651 2.91526C3.57643 2.91526 3.5763 2.91526 3.57622 2.91526C2.20247 2.91526 0 7.28711 0 8.42282C0 8.79459 0.19495 9.14659 0.522985 9.34201L1.91552 10.1572C1.88823 10.4372 1.87456 10.7186 1.87456 11C1.87456 11.2814 1.88823 11.5628 1.91552 11.8428L0.522985 12.658C0.19495 12.8534 0 13.2054 0 13.5772C0 14.491 2.08695 19.0847 3.57651 19.0847C3.7561 19.0847 3.93662 19.0378 4.09984 18.9405L5.48696 18.1254C5.94021 18.4581 6.42071 18.7409 6.92858 18.9738V20.604C6.92858 21.0864 7.24528 21.5079 7.70407 21.6299C8.61602 21.8766 9.55667 22 10.4979 22C11.4393 22 12.3813 21.8766 13.2959 21.6299C13.7547 21.5079 14.0714 21.0864 14.0714 20.604V18.9738C14.5793 18.7409 15.0598 18.4581 15.513 18.1254L16.9002 18.9405C17.0633 19.0378 17.2439 19.0847 17.4235 19.0847C18.7972 19.0847 21 14.7135 21 13.5772ZM17.2379 16.7561C16.2308 16.1642 16.7614 16.4761 15.3906 15.6705C13.6109 16.9765 14.0225 16.7331 12.0402 17.6422V19.8009C11.4777 19.9014 10.9577 19.9375 10.4983 19.9375C9.84564 19.9375 9.31547 19.8647 8.95976 19.801V17.6422C6.9728 16.731 7.38636 16.9745 5.60942 15.6705C4.26326 16.4615 4.65037 16.2341 3.76292 16.7556C3.09673 15.9524 2.57489 15.0346 2.22231 14.0439C3.11628 13.5207 2.72351 13.7506 4.06607 12.9647C3.95863 11.8629 3.9048 11.4331 3.9048 11.0017C3.9048 10.5711 3.95846 10.1389 4.06607 9.03534C2.71661 8.24536 3.11324 8.47752 2.22176 7.95575C2.57358 6.96562 3.09699 6.0451 3.76207 5.24395C4.76919 5.83576 4.23855 5.52389 5.60942 6.32951C7.38907 5.02348 6.9775 5.26685 8.95976 4.3578V2.19914C9.52235 2.09855 10.0424 2.0625 10.5017 2.0625C11.1544 2.0625 11.6846 2.13529 12.0402 2.19897V4.3578C14.0272 5.269 13.6136 5.02545 15.3906 6.32951C16.8272 5.48526 16.3437 5.76941 17.2372 5.24438C17.9033 6.04759 18.4251 6.96545 18.7777 7.95609C17.8837 8.47932 18.2765 8.2494 16.9339 9.03534C17.0414 10.1371 17.0952 10.5669 17.0952 10.9983C17.0952 11.4289 17.0415 11.8611 16.9339 12.9647C18.2834 13.7546 17.8868 13.5225 18.7782 14.0442C18.4264 15.0344 17.903 15.9549 17.2379 16.7561ZM10.5 6.875C8.26256 6.875 6.43768 8.72803 6.43768 11C6.43768 13.272 8.26256 15.125 10.5 15.125C12.7375 15.125 14.5624 13.272 14.5624 11C14.5624 8.72803 12.7375 6.875 10.5 6.875ZM10.5 13.0625C9.38004 13.0625 8.46885 12.1373 8.46885 11C8.46885 9.86275 9.38004 8.9375 10.5 8.9375C11.62 8.9375 12.5312 9.86275 12.5312 11C12.5312 12.1373 11.62 13.0625 10.5 13.0625Z" fill="#DE7D2C"/>
</svg>
