<svg width="20" height="16" viewBox="0 0 20 16" fill="none" xmlns="http://www.w3.org/2000/svg">
<path fill-rule="evenodd" clip-rule="evenodd" d="M7.5 1.6C6.11929 1.6 5 2.67452 5 4C5 5.32548 6.11929 6.4 7.5 6.4C8.88071 6.4 10 5.32548 10 4C10 2.67452 8.88071 1.6 7.5 1.6ZM3.33333 4C3.33333 1.79086 5.19881 0 7.5 0C9.80119 0 11.6667 1.79086 11.6667 4C11.6667 6.20914 9.80119 8 7.5 8C5.19881 8 3.33333 6.20914 3.33333 4ZM12.526 0.705572C12.6402 0.277552 13.0942 0.0194133 13.54 0.129004C14.4363 0.349305 15.2307 0.849705 15.798 1.55131C16.3653 2.25292 16.6732 3.11583 16.6732 4.004C16.6732 4.89217 16.3653 5.75508 15.798 6.45669C15.2307 7.1583 14.4363 7.6587 13.54 7.879C13.0942 7.98859 12.6402 7.73045 12.526 7.30243C12.4119 6.87441 12.6808 6.43859 13.1266 6.329C13.6644 6.19682 14.141 5.89658 14.4814 5.47562C14.8218 5.05465 15.0065 4.5369 15.0065 4.004C15.0065 3.4711 14.8218 2.95336 14.4814 2.53239C14.141 2.11142 13.6644 1.81118 13.1266 1.679C12.6808 1.56941 12.4119 1.13359 12.526 0.705572ZM1.22039 10.7716C2.00179 10.0214 3.0616 9.6 4.16667 9.6H10.8333C11.9384 9.6 12.9982 10.0214 13.7796 10.7716C14.561 11.5217 15 12.5391 15 13.6V15.2C15 15.6418 14.6269 16 14.1667 16C13.7064 16 13.3333 15.6418 13.3333 15.2V13.6C13.3333 12.9635 13.0699 12.353 12.6011 11.9029C12.1323 11.4529 11.4964 11.2 10.8333 11.2H4.16667C3.50363 11.2 2.86774 11.4529 2.3989 11.9029C1.93006 12.353 1.66667 12.9635 1.66667 13.6V15.2C1.66667 15.6418 1.29357 16 0.833333 16C0.373096 16 0 15.6418 0 15.2V13.6C0 12.5391 0.438987 11.5217 1.22039 10.7716ZM15.8598 10.304C15.9749 9.8762 16.4294 9.61895 16.875 9.72941C17.7689 9.95097 18.5608 10.4513 19.1264 11.1517C19.692 11.8522 19.9993 12.7131 20 13.5994V15.2C20 15.6418 19.6269 16 19.1667 16C18.7064 16 18.3333 15.6418 18.3333 15.2V13.6006C18.3329 13.0688 18.1486 12.5523 17.8092 12.132C17.4698 11.7117 16.9947 11.4115 16.4583 11.2786C16.0127 11.1681 15.7447 10.7318 15.8598 10.304Z" fill="#5BAEB6"/>
</svg>
