<svg width="37" height="74" viewBox="0 0 37 74" fill="none" xmlns="http://www.w3.org/2000/svg">
<path fill-rule="evenodd" clip-rule="evenodd" d="M10.1754 3.16059C12.3832 1.1369 15.3777 0 18.5 0C21.6223 0 24.6168 1.1369 26.8246 3.16059C29.0324 5.18428 30.2727 7.92899 30.2727 10.7909V43.9622C32.8357 45.9002 34.7914 48.4428 35.9185 51.3299C37.2556 54.7552 37.3555 58.4838 36.2034 61.9651C35.0514 65.4464 32.7084 68.4958 29.5205 70.6629C26.3326 72.83 22.4689 74 18.5 74C14.5311 74 10.6674 72.83 7.4795 70.6629C4.29163 68.4958 1.94864 65.4464 0.796557 61.9651C-0.355529 58.4838 -0.255622 54.7552 1.08152 51.3299C2.20859 48.4428 4.16431 45.9002 6.72727 43.9622V10.7909C6.72727 7.92899 7.96761 5.18428 10.1754 3.16059ZM18.5 6.16624C17.1619 6.16624 15.8785 6.65348 14.9323 7.52078C13.9861 8.38807 13.4545 9.56438 13.4545 10.7909V45.5069C13.4545 46.5366 12.8937 47.4983 11.9596 48.0704C9.85954 49.3565 8.26642 51.2276 7.41551 53.4074C6.5646 55.5871 6.50103 57.9598 7.23417 60.1752C7.96732 62.3906 9.45831 64.3311 11.487 65.7102C13.5156 67.0892 15.9743 67.8338 18.5 67.8338C21.0257 67.8338 23.4844 67.0892 25.513 65.7102C27.5417 64.3311 29.0327 62.3906 29.7658 60.1752C30.499 57.9598 30.4354 55.5871 29.5845 53.4074C28.7336 51.2276 27.1405 49.3566 25.0404 48.0704C24.1063 47.4983 23.5455 46.5366 23.5455 45.5069V10.7909C23.5455 9.56438 23.0139 8.38807 22.0677 7.52078C21.1215 6.65348 19.8381 6.16624 18.5 6.16624Z" fill="#FFB800"/>
</svg>
