<svg width="13" height="26" viewBox="0 0 13 26" fill="none" xmlns="http://www.w3.org/2000/svg">
<path fill-rule="evenodd" clip-rule="evenodd" d="M3.57515 1.11048C4.35087 0.39945 5.40297 0 6.5 0C7.59703 0 8.64913 0.39945 9.42485 1.11048C10.2006 1.8215 10.6364 2.78586 10.6364 3.7914V15.4462C11.5369 16.1271 12.224 17.0204 12.62 18.0348C13.0898 19.2383 13.1249 20.5484 12.7201 21.7715C12.3153 22.9947 11.4921 24.0661 10.3721 24.8275C9.25201 25.5889 7.89449 26 6.5 26C5.10551 26 3.74799 25.5889 2.62793 24.8275C1.50787 24.0661 0.684658 22.9947 0.279871 21.7715C-0.124915 20.5484 -0.0898133 19.2383 0.379993 18.0348C0.775991 17.0204 1.46314 16.1271 2.36364 15.4462V3.7914C2.36364 2.78586 2.79943 1.8215 3.57515 1.11048ZM6.5 2.16652C6.02984 2.16652 5.57894 2.33771 5.24649 2.64244C4.91404 2.94716 4.72727 3.36046 4.72727 3.7914V15.9889C4.72727 16.3507 4.53022 16.6886 4.20202 16.8896C3.46416 17.3415 2.90442 17.9989 2.60545 18.7647C2.30648 19.5306 2.28414 20.3643 2.54174 21.1426C2.79933 21.921 3.32319 22.6028 4.03596 23.0874C4.74872 23.5719 5.6126 23.8335 6.5 23.8335C7.3874 23.8335 8.25128 23.5719 8.96404 23.0874C9.67681 22.6028 10.2007 21.921 10.4583 21.1426C10.7159 20.3643 10.6935 19.5306 10.3945 18.7647C10.0956 17.9989 9.53584 17.3415 8.79798 16.8896C8.46978 16.6886 8.27273 16.3507 8.27273 15.9889V3.7914C8.27273 3.36046 8.08596 2.94716 7.75351 2.64244C7.42106 2.33771 6.97016 2.16652 6.5 2.16652Z" fill="white"/>
</svg>
