<svg width="36" height="36" viewBox="0 0 36 36" fill="none" xmlns="http://www.w3.org/2000/svg">
<path fill-rule="evenodd" clip-rule="evenodd" d="M17.5016 0C17.1701 0 16.8522 0.131696 16.6177 0.366117C16.3833 0.600537 16.2516 0.918479 16.2516 1.25V17.5054C16.2516 18.1957 16.8113 18.7554 17.5016 18.7554H33.7527C34.443 18.7554 35.0027 18.1957 35.0027 17.5054C35.0027 15.2066 34.55 12.9303 33.6705 10.8065C32.791 8.68264 31.502 6.75286 29.8769 5.12732C28.2517 3.50178 26.3224 2.21232 24.1991 1.33256C22.0757 0.452808 19.7999 0 17.5016 0ZM18.7516 16.2554V2.55218C20.2933 2.68113 21.8083 3.04807 23.2422 3.64217C25.0622 4.39624 26.7159 5.50149 28.1088 6.89486C29.5018 8.28822 30.6068 9.9424 31.3607 11.763C31.9548 13.1974 32.3216 14.7131 32.4505 16.2554H18.7516ZM11.5013 3.74388C12.134 3.46771 12.4231 2.73091 12.1469 2.0982C11.8707 1.4655 11.1339 1.17647 10.5012 1.45265C7.88108 2.59634 5.58095 4.36462 3.80191 6.60286C2.02287 8.8411 0.819083 11.4812 0.295758 14.2922C-0.227566 17.1033 -0.0544987 19.9998 0.799836 22.7285C1.65417 25.4572 3.16377 27.935 5.19668 29.9454C7.22959 31.9557 9.72392 33.4374 12.4616 34.2608C15.1993 35.0842 18.097 35.2242 20.9013 34.6687C23.7056 34.1131 26.3311 32.8789 28.5483 31.0739C30.7655 29.2689 32.5069 26.9481 33.6202 24.3145C33.889 23.6786 33.5915 22.9453 32.9556 22.6764C32.3197 22.4076 31.5864 22.7052 31.3175 23.3411C30.3632 25.5986 28.8705 27.5879 26.97 29.1351C25.0695 30.6822 22.819 31.7401 20.4154 32.2163C18.0118 32.6925 15.5282 32.5725 13.1816 31.8667C10.8351 31.161 8.69711 29.891 6.95456 28.1678C5.21201 26.4446 3.91798 24.3206 3.18563 21.9815C2.45328 19.6424 2.30492 17.1595 2.75353 14.7498C3.20214 12.3401 4.23404 10.077 5.759 8.15843C7.28396 6.23985 9.25554 4.72418 11.5013 3.74388Z" fill="white"/>
</svg>
