<svg width="32" height="32" viewBox="0 0 32 32" fill="none" xmlns="http://www.w3.org/2000/svg">
<path d="M4 8H6.66667H28" stroke="#F1374E" stroke-width="2" stroke-linecap="round" stroke-linejoin="round"/>
<path d="M10.6666 7.99984V5.33317C10.6666 4.62593 10.9476 3.94765 11.4477 3.44755C11.9478 2.94746 12.626 2.6665 13.3333 2.6665H18.6666C19.3739 2.6665 20.0521 2.94746 20.5522 3.44755C21.0523 3.94765 21.3333 4.62593 21.3333 5.33317V7.99984M25.3333 7.99984V26.6665C25.3333 27.3737 25.0523 28.052 24.5522 28.5521C24.0521 29.0522 23.3739 29.3332 22.6666 29.3332H9.33329C8.62605 29.3332 7.94777 29.0522 7.44767 28.5521C6.94758 28.052 6.66663 27.3737 6.66663 26.6665V7.99984H25.3333Z" stroke="#F1374E" stroke-width="2" stroke-linecap="round" stroke-linejoin="round"/>
<path d="M13.3334 14.6665V22.6665" stroke="#F1374E" stroke-width="2" stroke-linecap="round" stroke-linejoin="round"/>
<path d="M18.6666 14.6665V22.6665" stroke="#F1374E" stroke-width="2" stroke-linecap="round" stroke-linejoin="round"/>
</svg>
