<svg width="25" height="20" viewBox="0 0 25 20" fill="none" xmlns="http://www.w3.org/2000/svg">
<path fill-rule="evenodd" clip-rule="evenodd" d="M11.2982 9.29289C11.6888 8.90237 12.3219 8.90237 12.7124 9.29289L16.7124 13.2929C17.103 13.6834 17.103 14.3166 16.7124 14.7071C16.3219 15.0976 15.6888 15.0976 15.2982 14.7071L12.0053 11.4142L8.71245 14.7071C8.32192 15.0976 7.68876 15.0976 7.29823 14.7071C6.90771 14.3166 6.90771 13.6834 7.29823 13.2929L11.2982 9.29289Z" fill="white"/>
<path fill-rule="evenodd" clip-rule="evenodd" d="M12.0053 9C12.5576 9 13.0053 9.44771 13.0053 10V19C13.0053 19.5523 12.5576 20 12.0053 20C11.4531 20 11.0053 19.5523 11.0053 19V10C11.0053 9.44771 11.4531 9 12.0053 9Z" fill="white"/>
<path fill-rule="evenodd" clip-rule="evenodd" d="M8.66863 0.00854446C10.0281 -0.0415446 11.3813 0.217212 12.6264 0.76536C13.8714 1.31351 14.9761 2.13678 15.8572 3.17329C16.5686 4.01022 17.1194 4.96858 17.4844 5.99998H18.0053C19.3384 6.00086 20.6338 6.44564 21.686 7.26412C22.7382 8.0826 23.4878 9.22816 23.8166 10.52C24.1454 11.8119 24.0347 13.1764 23.5018 14.3983C22.969 15.6202 22.0444 16.6299 20.874 17.268C20.3891 17.5323 19.7817 17.3535 19.5173 16.8686C19.253 16.3837 19.4318 15.7763 19.9167 15.512C20.6969 15.0866 21.3133 14.4135 21.6686 13.5989C22.0238 12.7843 22.0976 11.8746 21.8784 11.0133C21.6592 10.1521 21.1595 9.38839 20.458 8.84274C19.7566 8.29709 18.8934 8.00057 18.0047 7.99998H16.7453C16.2895 7.99998 15.8913 7.69166 15.7772 7.25029C15.5123 6.22588 15.0187 5.27483 14.3334 4.46866C13.6481 3.66249 12.7889 3.02216 11.8205 2.59582C10.8521 2.16949 9.79965 1.96823 8.74227 2.00719C7.68489 2.04615 6.6501 2.3243 5.71569 2.82075C4.78129 3.31719 3.97159 4.01901 3.34746 4.87343C2.72333 5.72784 2.30102 6.71264 2.11227 7.75376C1.92353 8.79489 1.97326 9.86525 2.25773 10.8844C2.5422 11.9035 3.054 12.8449 3.75467 13.6378C4.12038 14.0516 4.08137 14.6836 3.66752 15.0493C3.25368 15.415 2.62172 15.376 2.256 14.9622C1.35515 13.9428 0.697109 12.7324 0.331363 11.4221C-0.0343839 10.1118 -0.0983238 8.73559 0.14435 7.397C0.387024 6.05841 0.929997 4.79224 1.73245 3.69371C2.5349 2.59517 3.57595 1.69284 4.77732 1.05455C5.9787 0.416264 7.30914 0.0586335 8.66863 0.00854446Z" fill="white"/>
<path fill-rule="evenodd" clip-rule="evenodd" d="M11.2982 9.29289C11.6888 8.90237 12.3219 8.90237 12.7124 9.29289L16.7124 13.2929C17.103 13.6834 17.103 14.3166 16.7124 14.7071C16.3219 15.0976 15.6888 15.0976 15.2982 14.7071L12.0053 11.4142L8.71245 14.7071C8.32192 15.0976 7.68876 15.0976 7.29823 14.7071C6.90771 14.3166 6.90771 13.6834 7.29823 13.2929L11.2982 9.29289Z" fill="white"/>
</svg>
