<svg width="25" height="25" viewBox="0 0 25 25" fill="none" xmlns="http://www.w3.org/2000/svg">
<rect width="23.4667" height="23.4667" transform="translate(0.777344 0.777344)" fill="#212121"/>
<path fill-rule="evenodd" clip-rule="evenodd" d="M13.001 12.9991C11.5751 12.9991 10.3631 12.5 9.36493 11.5019C8.36678 10.5037 7.86771 9.29169 7.86771 7.86576C7.86771 6.43982 8.36678 5.2278 9.36493 4.22964C10.3631 3.23149 11.5751 2.73242 13.001 2.73242C14.427 2.73242 15.639 3.23149 16.6372 4.22964C17.6353 5.2278 18.1344 6.43982 18.1344 7.86576C18.1344 9.29169 17.6353 10.5037 16.6372 11.5019C15.639 12.5 14.427 12.9991 13.001 12.9991ZM12.9079 16.4306C12.9712 16.4241 13.0308 16.4241 13.0942 16.4306C13.74 16.4966 17.588 16.9134 19.7385 17.6809C22.0913 18.5206 23.2677 19.6217 23.2677 20.9843V23.2658H2.73438V20.9843C2.73438 19.6217 3.91075 18.5206 6.26354 17.6809C8.41404 16.9134 12.2621 16.4966 12.9079 16.4306Z" fill="white"/>
<path fill-rule="evenodd" clip-rule="evenodd" d="M20.3332 12.8374C20.8733 12.8374 21.311 12.3206 21.311 11.6831C21.311 11.0455 20.3908 9.57812 20.3908 9.57812C20.3908 9.57812 19.3555 11.0455 19.3555 11.6831C19.3555 12.3206 19.7932 12.8374 20.3332 12.8374Z" fill="white"/>
<path d="M20.3908 9.57812L21.1532 9.09996L20.4348 7.95445L19.6554 9.05929L20.3908 9.57812ZM20.3332 13.7374C21.5046 13.7374 22.211 12.6718 22.211 11.6831H20.411C20.411 11.7983 20.3711 11.8784 20.3379 11.9176C20.3063 11.9549 20.3014 11.9374 20.3332 11.9374V13.7374ZM22.211 11.6831C22.211 11.3514 22.102 11.0118 22.0086 10.7657C21.9057 10.4946 21.7741 10.2183 21.651 9.97933C21.5265 9.73778 21.4032 9.51986 21.3115 9.36305C21.2654 9.28426 21.2267 9.21995 21.1992 9.17472C21.1855 9.15208 21.1744 9.13416 21.1666 9.12152C21.1627 9.1152 21.1596 9.1102 21.1574 9.10658C21.1562 9.10478 21.1553 9.10331 21.1546 9.10221C21.1543 9.10165 21.154 9.10119 21.1538 9.10081C21.1536 9.10063 21.1535 9.10046 21.1535 9.10032C21.1534 9.10025 21.1534 9.10016 21.1533 9.10012C21.1533 9.10004 21.1532 9.09996 20.3908 9.57812C19.6283 10.0563 19.6283 10.0562 19.6282 10.0562C19.6282 10.0561 19.6282 10.0561 19.6282 10.0561C19.6281 10.056 19.6281 10.056 19.6281 10.056C19.6281 10.056 19.6281 10.056 19.6282 10.0562C19.6284 10.0565 19.6288 10.0571 19.6294 10.0581C19.6307 10.0601 19.6327 10.0634 19.6356 10.068C19.6412 10.0772 19.65 10.0914 19.6614 10.1101C19.6842 10.1476 19.7174 10.203 19.7576 10.2717C19.8385 10.4099 19.9452 10.5987 20.0508 10.8037C20.1578 11.0113 20.2562 11.2213 20.3258 11.4047C20.405 11.6131 20.411 11.696 20.411 11.6831H22.211ZM20.3908 9.57812C19.6554 9.05929 19.6553 9.05937 19.6552 9.05945C19.6552 9.05949 19.6552 9.05958 19.6551 9.05965C19.655 9.05979 19.6549 9.05996 19.6548 9.06015C19.6545 9.06053 19.6542 9.06099 19.6538 9.06155C19.653 9.06266 19.652 9.06412 19.6507 9.06594C19.6482 9.06956 19.6447 9.07457 19.6402 9.0809C19.6314 9.09356 19.619 9.11151 19.6035 9.13417C19.5725 9.17946 19.529 9.24383 19.4771 9.32272C19.3739 9.47968 19.2348 9.69802 19.0945 9.94021C18.9557 10.1795 18.8066 10.4577 18.6896 10.7317C18.5849 10.9768 18.4555 11.3303 18.4555 11.6831H20.2555C20.2555 11.7171 20.2555 11.6481 20.3449 11.4388C20.422 11.2583 20.5317 11.0501 20.6518 10.8428C20.7702 10.6385 20.89 10.4501 20.9809 10.312C21.026 10.2434 21.0634 10.1881 21.089 10.1507C21.1018 10.132 21.1117 10.1178 21.118 10.1086C21.1212 10.104 21.1235 10.1007 21.1249 10.0988C21.1256 10.0978 21.126 10.0971 21.1262 10.0968C21.1264 10.0967 21.1264 10.0966 21.1264 10.0966C21.1264 10.0966 21.1264 10.0967 21.1263 10.0967C21.1263 10.0968 21.1263 10.0968 21.1263 10.0968C21.1262 10.0969 21.1262 10.097 20.3908 9.57812ZM18.4555 11.6831C18.4555 12.6718 19.1619 13.7374 20.3332 13.7374V11.9374C20.3651 11.9374 20.3602 11.9549 20.3286 11.9176C20.2954 11.8784 20.2555 11.7983 20.2555 11.6831H18.4555Z" fill="white"/>
</svg>
