<svg width="59" height="68" viewBox="0 0 59 68" fill="none" xmlns="http://www.w3.org/2000/svg">
<path d="M58.8704 62.7141C57.1737 55.8344 51.0445 51 44.0078 51H14.9535C7.92338 51 1.8008 55.8317 0.0909449 62.7194C-0.458706 65.3969 1.55089 68 4.28929 68H54.6773C57.5288 68 59.5412 65.3969 58.8704 62.7141ZM4.28929 63.6305C5.52827 58.743 9.96073 55.25 14.9535 55.25H43.8894C48.998 55.25 53.4304 58.7456 54.6707 63.75L4.28929 63.6305ZM42.4821 29.75C42.4821 36.7811 36.8172 42.5 29.8542 42.5C22.8912 42.5 17.2289 36.7758 17.2289 29.75C17.2289 28.5754 16.2874 27.625 15.1245 27.625C13.9615 27.625 13.0201 28.5754 13.0201 29.75C13.0201 39.1239 20.5736 46.75 29.8555 46.75C39.1387 46.75 46.691 39.1239 46.691 29.75C46.691 28.5754 45.7495 27.625 44.5865 27.625C43.4291 27.625 42.4821 28.5812 42.4821 29.75ZM10.6578 23.375H48.7481C49.9165 23.375 50.8643 22.4235 50.8643 21.25C50.8643 20.0762 49.9169 19.125 48.7481 19.125L46.6318 19.124C46.6318 10.4779 40.1475 3.39896 31.8218 2.33646V2.125C31.8218 0.950406 30.8755 0 29.7056 0C28.5271 0 27.5801 0.950406 27.5801 2.125V2.33777C19.2531 3.39721 12.7701 10.4778 12.7701 19.1253L10.6578 19.125C9.48855 19.125 8.54156 20.0812 8.54156 21.25C8.54156 22.4188 9.48855 23.375 10.6578 23.375ZM31.8153 6.5875C37.8076 7.60644 42.3953 12.8204 42.3953 19.1237L31.8153 19.125V6.5875ZM17.0053 19.0055C17.0053 12.7022 21.593 7.48797 27.5854 6.4693V19.125L17.0053 19.0055Z" fill="#DE7D2C"/>
</svg>
