<svg width="83" height="94" viewBox="0 0 83 94" fill="none" xmlns="http://www.w3.org/2000/svg">
<path d="M16.3036 32.3125H66.6964C67.507 32.3125 68.1786 31.647 68.1786 30.8438V24.9688C68.1786 24.1655 67.507 23.5 66.6964 23.5H65.2143C65.2143 14.9858 59.9342 7.80273 52.4771 4.70459L47.4286 14.6875V2.9375C47.4286 1.30811 46.1085 0 44.4643 0H38.5357C36.8915 0 35.5714 1.30811 35.5714 2.9375V14.6875L30.5229 4.70459C23.0658 7.80273 17.7857 14.9858 17.7857 23.5H16.3036C15.493 23.5 14.8214 24.1655 14.8214 24.9688V30.8438C14.8214 31.647 15.493 32.3125 16.3036 32.3125ZM41.5 49.9375C34.4598 49.9375 28.3923 45.0264 26.9796 38.1875H18.0868C19.5689 49.7539 29.4113 58.75 41.5 58.75C53.5887 58.75 63.4542 49.7539 64.9132 38.1875H56.0204C54.6077 45.0264 48.5402 49.9375 41.5 49.9375ZM58.2971 64.625H24.7029C11.0603 64.625 0 75.5846 0 89.1039C0 91.8077 2.21228 94 4.93998 94H78.06C80.7877 94 83 91.8077 83 89.1039C83 75.5846 71.9408 64.625 58.2971 64.625ZM9.39289 85.1875C11.1526 78.4379 17.3494 73.4375 24.7029 73.4375H58.2971C65.6506 73.4375 71.8474 78.4379 73.6071 85.1875H9.39289Z" fill="#DE7D2C"/>
</svg>
