<svg width="25" height="14" viewBox="0 0 25 14" fill="none" xmlns="http://www.w3.org/2000/svg">
<path d="M11.2913 2H3C1.89543 2 1 2.89543 1 4V10C1 11.1046 1.89543 12 3 12H8.9903C8.87448 12.3232 8.85634 12.6779 8.94958 13H3C1.34315 13 0 11.6569 0 10V4C0 2.34315 1.34315 1 3 1H12.1317L11.2913 2Z" fill="white"/>
<path d="M12.7066 12H20C21.1046 12 22 11.1046 22 10V4C22 2.89543 21.1046 2 20 2H15.0042C15.1211 1.67563 15.1385 1.3213 15.045 1H20C21.6569 1 23 2.34315 23 4V10C23 11.6569 21.6569 13 20 13H11.8671L12.7066 12Z" fill="white"/>
<path d="M24 5C24.5523 5 25 5.44772 25 6V8C25 8.55228 24.5523 9 24 9V5Z" fill="white"/>
<path d="M8.43814 8.07668H11.5825L9.93814 12.32C9.70103 12.9319 10.3454 13.2505 10.7629 12.76L15.8454 6.70609C15.9485 6.5847 16 6.46332 16 6.33183C16 6.09918 15.8144 5.92722 15.5619 5.92722H12.4175L14.0567 1.67889C14.2938 1.07198 13.6495 0.7483 13.2371 1.23888L8.14948 7.29276C8.04639 7.4192 8 7.53552 8 7.66702C8 7.90472 8.18557 8.07668 8.43814 8.07668Z" fill="white"/>
</svg>
